<svg width="16" height="18" viewBox="0 0 16 18" fill="none" xmlns="http://www.w3.org/2000/svg">
<g opacity="0.6">
<path d="M15 7.54545C15 12.6364 8 17 8 17C8 17 1 12.6364 1 7.54545C1 6.68589 1.18106 5.83475 1.53284 5.04062C1.88463 4.24649 2.40024 3.52492 3.05025 2.91712C3.70026 2.30932 4.47194 1.82718 5.32122 1.49824C6.1705 1.1693 7.08075 1 8 1C8.91925 1 9.82951 1.1693 10.6788 1.49824C11.5281 1.82718 12.2997 2.30932 12.9497 2.91712C13.5998 3.52492 14.1154 4.24649 14.4672 5.04062C14.8189 5.83475 15 6.68589 15 7.54545V7.54545Z" stroke="#11004D" stroke-width="2" stroke-linecap="round" stroke-linejoin="round"/>
<path d="M7.99947 9.72692C9.28814 9.72692 10.3328 8.75008 10.3328 7.5451C10.3328 6.34011 9.28814 5.36328 7.99947 5.36328C6.71081 5.36328 5.66614 6.34011 5.66614 7.5451C5.66614 8.75008 6.71081 9.72692 7.99947 9.72692Z" stroke="#11004D" stroke-width="2" stroke-linecap="round" stroke-linejoin="round"/>
</g>
</svg>
