<svg width="28" height="11" viewBox="0 0 28 11" fill="none" xmlns="http://www.w3.org/2000/svg">
<path d="M3.68419 10.5628C6.24304 10.5628 7.76367 8.56182 7.76367 5.17381C7.80113 4.07058 7.55535 2.97615 7.04976 1.99488C6.74654 1.38116 6.27325 0.867566 5.68629 0.515319C5.09934 0.163073 4.42347 -0.0129707 3.73926 0.00817002C3.25709 -0.0248408 2.77332 0.0424166 2.31845 0.205701C1.86357 0.368985 1.44747 0.624753 1.09637 0.956875C0.745276 1.289 0.466809 1.69027 0.278532 2.13538C0.0902556 2.58049 -0.00374624 3.05979 0.00245494 3.54304C-0.0147742 3.98414 0.0588287 4.42408 0.218697 4.83555C0.378564 5.24703 0.621286 5.62126 0.9318 5.93502C1.24231 6.24879 1.614 6.4954 2.02378 6.65954C2.43357 6.82369 2.87272 6.90187 3.31397 6.88924C3.8474 6.91503 4.37697 6.7867 4.83941 6.51958C5.30185 6.25246 5.67761 5.85785 5.92178 5.38289H6.04009C6.04009 7.68371 5.16912 9.05442 3.69439 9.05442C3.305 9.07455 2.92004 8.96407 2.60058 8.74051C2.28113 8.51695 2.04548 8.19311 1.93103 7.82038H0.142177C0.298065 8.63006 0.74371 9.35517 1.39568 9.85997C2.04766 10.3648 2.86126 10.6146 3.68419 10.5628ZM3.74742 5.46346C3.48463 5.47453 3.2224 5.43098 2.97729 5.33556C2.73219 5.24014 2.50953 5.09493 2.3234 4.90908C2.13727 4.72324 1.99171 4.50081 1.89591 4.25586C1.80011 4.0109 1.75616 3.74874 1.76683 3.48593C1.77048 2.95848 1.98351 2.45408 2.35906 2.0837C2.54501 1.90031 2.76526 1.75534 3.00724 1.65706C3.24922 1.55879 3.50818 1.50914 3.76935 1.51095C4.03051 1.51276 4.28877 1.56599 4.52936 1.6676C4.76995 1.76922 4.98818 1.91722 5.17157 2.10318C5.35497 2.28913 5.49994 2.50938 5.59821 2.75136C5.69648 2.99333 5.74613 3.2523 5.74432 3.51346C5.74934 3.77482 5.70069 4.03442 5.60138 4.27623C5.50207 4.51803 5.35421 4.73689 5.16695 4.91928C4.97969 5.10166 4.757 5.24369 4.51267 5.33659C4.26833 5.42949 4.00753 5.47128 3.7464 5.45938L3.74742 5.46346ZM10.9253 9.25635C11.1425 9.25354 11.354 9.18655 11.5333 9.06382C11.7125 8.94109 11.8515 8.7681 11.9326 8.56661C12.0138 8.36511 12.0336 8.14411 11.9895 7.93139C11.9454 7.71868 11.8394 7.52375 11.6848 7.37114C11.5302 7.21852 11.3339 7.11503 11.1207 7.07367C10.9074 7.03231 10.6867 7.05495 10.4862 7.13872C10.2858 7.22249 10.1146 7.36365 9.99421 7.54447C9.8738 7.72528 9.80955 7.93766 9.80953 8.15489C9.80547 8.30159 9.83166 8.44754 9.88647 8.58367C9.94129 8.7198 10.0235 8.84318 10.1281 8.94613C10.2327 9.04908 10.3574 9.12939 10.4943 9.18206C10.6313 9.23473 10.7776 9.25863 10.9242 9.25228L10.9253 9.25635ZM10.9253 4.02748C11.0719 4.03472 11.2184 4.01154 11.3556 3.95939C11.4929 3.90725 11.6178 3.82726 11.7226 3.72447C11.8274 3.62168 11.9098 3.49831 11.9646 3.36213C12.0194 3.22594 12.0454 3.07989 12.041 2.93316C12.0322 2.64322 11.9109 2.36809 11.7027 2.1661C11.4945 1.96412 11.2158 1.85115 10.9258 1.85115C10.6357 1.85115 10.357 1.96412 10.1488 2.1661C9.94066 2.36809 9.81932 2.64322 9.81055 2.93316C9.80734 3.07921 9.83414 3.22436 9.88928 3.35964C9.94442 3.49492 10.0267 3.61745 10.1311 3.71964C10.2355 3.82183 10.3598 3.90152 10.4962 3.95376C10.6326 4.00601 10.7783 4.02971 10.9242 4.0234L10.9253 4.02748ZM18.9945 10.3191H20.716V8.44352H22.0755V6.92391H20.717V0.259058H18.1796C16.402 2.93622 14.9864 5.17381 14.0797 6.84028V8.44352H18.9945V10.3191ZM15.7462 6.86068C16.917 4.79748 17.9634 3.14427 18.9251 1.72257H19.0271V6.96573H15.7462V6.86068ZM26.2009 10.3191H27.9999V0.259058H26.208L23.5788 2.0989V3.83268L26.0816 2.07545H26.1999L26.2009 10.3191Z" fill="white"/>
</svg>
