<svg width="13" height="15" viewBox="0 0 13 15" fill="none" xmlns="http://www.w3.org/2000/svg">
<path d="M11.7905 6.27763C11.7905 10.5562 6.28357 14.2235 6.28357 14.2235C6.28357 14.2235 0.77662 10.5562 0.77662 6.27763C0.77662 5.55523 0.919062 4.8399 1.19581 4.17249C1.47256 3.50507 1.8782 2.89865 2.38957 2.38783C2.90094 1.87701 3.50802 1.47181 4.17615 1.19536C4.84428 0.918908 5.56039 0.77662 6.28357 0.77662C7.00675 0.77662 7.72285 0.918908 8.39099 1.19536C9.05912 1.47181 9.6662 1.87701 10.1776 2.38783C10.6889 2.89865 11.0946 3.50507 11.3713 4.17249C11.6481 4.8399 11.7905 5.55523 11.7905 6.27763V6.27763Z" stroke="#FFCD00" stroke-width="1.5" stroke-linecap="round" stroke-linejoin="round"/>
<path d="M6.28402 8.10966C7.29782 8.10966 8.11967 7.28869 8.11967 6.27598C8.11967 5.26327 7.29782 4.44231 6.28402 4.44231C5.27022 4.44231 4.44838 5.26327 4.44838 6.27598C4.44838 7.28869 5.27022 8.10966 6.28402 8.10966Z" stroke="#FFCD00" stroke-width="1.5" stroke-linecap="round" stroke-linejoin="round"/>
</svg>
