<svg width="48" height="48" viewBox="0 0 48 48" fill="none" xmlns="http://www.w3.org/2000/svg">
<g clip-path="url(#clip0_2_977)">
<path d="M14.4002 36.7998V31.9997C14.3971 29.6399 12.6816 27.6313 10.3513 27.2589C11.712 25.5185 11.4042 23.0046 9.66382 21.6439C7.9234 20.2832 5.40957 20.591 4.04885 22.3314C2.91714 23.7789 2.91714 25.8114 4.04885 27.2589C1.71862 27.6312 0.00310004 29.6399 0 31.9997V36.7998C0.00150002 38.1246 1.07521 39.1983 2.40003 39.1998H3.20004V47.1999C3.20004 47.6417 3.55824 47.9999 4.00005 47.9999H10.4001C10.8419 47.9999 11.2001 47.6417 11.2001 47.1999V39.1998H12.0001C13.325 39.1982 14.3987 38.1246 14.4002 36.7998ZM7.20009 22.3996C8.52561 22.3996 9.60012 23.4741 9.60012 24.7997C9.60012 26.1252 8.52561 27.1997 7.20009 27.1997C5.87457 27.1997 4.80006 26.1252 4.80006 24.7997C4.80156 23.4747 5.87527 22.4011 7.20009 22.3996ZM12.8002 36.7998C12.7997 37.2414 12.4418 37.5993 12.0001 37.5998H11.2001V33.5998H9.60012V46.3999H8.0001V40.7999H6.40008V46.3999H4.80006V33.5998H3.20004V37.5998H2.40003C1.95842 37.5993 1.60052 37.2414 1.60002 36.7998V31.9997C1.60202 30.2332 3.03354 28.8017 4.80006 28.7997H6.40008V31.9997H8.0001V28.7997H9.60012C11.3666 28.8017 12.7982 30.2332 12.8002 31.9997V36.7998Z" fill="#00D8D5"/>
<path opacity="0.8" d="M24.0003 36.8001V32C23.9972 29.6402 22.2817 27.6316 19.9515 27.2592C21.3082 25.5173 20.996 23.0054 19.2542 21.6487C17.5123 20.292 15.0004 20.6042 13.6437 22.346C12.287 24.0878 12.5992 26.5998 14.341 27.9565C14.8278 28.3356 15.3957 28.597 16.0002 28.72V32H17.6002V28.8H19.2003C20.9668 28.802 22.3983 30.2335 22.4003 32V36.8001C22.3998 37.2417 22.0419 37.5996 21.6003 37.6001H20.8003V33.6H19.2003V46.4002H17.6002V40.8001H16.0002V46.4002H14.4002V40.8001H12.8002V47.2002C12.8002 47.642 13.1584 48.0002 13.6002 48.0002H20.0003C20.4421 48.0002 20.8003 47.642 20.8003 47.2002V39.2001H21.6003C22.9251 39.1985 23.9988 38.1249 24.0003 36.8001ZM14.4002 24.7999C14.4002 23.4744 15.4747 22.3999 16.8002 22.3999C18.1257 22.3999 19.2003 23.4744 19.2003 24.7999C19.2003 26.1254 18.1257 27.2 16.8002 27.2C15.4754 27.1984 14.4017 26.1247 14.4002 24.7999Z" fill="#11004D"/>
<path opacity="0.8" d="M40.971 7.02945C31.5983 -2.34317 16.4021 -2.34317 7.02949 7.02955C2.52873 11.5303 0.000200002 17.6346 0 23.9997C0 24.8286 0.0424005 25.6569 0.126902 26.4815L1.71852 26.3179C1.63952 25.5477 1.60002 24.7739 1.60002 23.9997C1.59272 20.4354 2.43993 16.9214 4.07075 13.7521L5.79797 15.7264C5.82567 15.758 5.85577 15.7873 5.88797 15.8142L10.688 19.8142C10.7475 19.8638 10.8138 19.9045 10.885 19.935L13.2851 20.9636L13.9151 19.4929L11.6224 18.5102L6.96039 14.6253L4.90476 12.2753C5.82637 10.7817 6.91919 9.40068 8.1609 8.16026C8.60291 7.71836 9.06001 7.29775 9.53212 6.89845L10.4355 9.83479C10.5151 10.0935 10.7201 10.2943 10.9803 10.3687L16.0942 11.8295L16.811 16.1308C16.8448 16.3339 16.9555 16.5161 17.1202 16.6396L20.2346 18.9753L25.7689 26.0908C26.0029 26.392 26.4171 26.486 26.7581 26.3152L29.9582 24.7152C30.2037 24.5924 30.3691 24.3524 30.3964 24.0793L31.1764 16.2775L34.082 11.9189L37.7572 11.184C37.8744 11.1606 37.9849 11.1112 38.0805 11.0395L40.7022 9.07318C43.015 11.6461 44.695 14.7235 45.6084 18.0604L43.5245 20.1441C42.2793 17.3136 38.9754 16.0285 36.1449 17.2737C34.1121 18.1679 32.8 20.1789 32.8004 22.3996C32.8004 23.5104 33.1191 24.5546 33.5977 25.4971L32.0655 30.8597L27.3347 37.9558C27.1863 38.1784 27.1589 38.4604 27.2618 38.7073L30.1164 45.5579C28.1261 46.1182 26.068 46.4015 24.0003 46.3999C23.4853 46.3999 22.9653 46.3822 22.4547 46.3475L22.3459 47.9438C22.8926 47.9812 23.4491 48 24.0003 48C37.2553 47.9997 48.0003 37.254 48 23.9991C47.9998 17.6342 45.4715 11.5301 40.971 7.02945ZM37.2656 9.65118L33.4435 10.4155C33.2355 10.4571 33.0525 10.5797 32.9348 10.7562L29.7348 15.5563C29.6623 15.6652 29.6176 15.7903 29.6048 15.9205L28.8487 23.4818L26.6295 24.5918L21.4321 17.9095C21.3885 17.8529 21.3374 17.8025 21.2803 17.7596L18.3366 15.5519L17.5894 11.068C17.5386 10.7633 17.317 10.5151 17.02 10.4303L11.8371 8.94947L10.8801 5.83944C19.6857 -0.518544 31.7833 0.354767 39.5846 7.91136L37.2656 9.65118ZM38.4005 18.3996C40.6086 18.4021 42.398 20.1915 42.4005 22.3996C42.4005 25.2445 39.5241 27.7416 38.3995 28.609C37.7511 28.1094 37.1454 27.5569 36.5884 26.9571C35.5904 25.8758 34.4004 24.2074 34.4004 22.3996C34.4029 20.1915 36.1924 18.4021 38.4005 18.3996ZM39.8397 39.8391C37.5253 42.1623 34.7273 43.9472 31.645 45.0667L28.9035 38.4873L33.466 31.6436C33.5119 31.5747 33.5469 31.4992 33.5696 31.4196L34.7535 27.2761C35.6746 28.4188 36.7531 29.4253 37.9567 30.2653C38.2254 30.4445 38.5756 30.4445 38.8443 30.2653C39.0548 30.125 44.0005 26.7775 44.0005 22.3996C44.0005 22.2483 43.9927 22.0989 43.9805 21.9506L46.0273 19.904C46.2757 21.2551 46.4006 22.6259 46.4006 23.9997C46.4168 29.9437 44.0543 35.6474 39.8397 39.8391Z" fill="#11004D"/>
<path opacity="0.8" d="M38.4005 24.8001C39.726 24.8001 40.8005 23.7256 40.8005 22.4C40.8005 21.0745 39.726 20 38.4005 20C37.075 20 36.0005 21.0745 36.0005 22.4C36.002 23.7249 37.0757 24.7985 38.4005 24.8001ZM38.4005 21.6C38.8423 21.6 39.2005 21.9582 39.2005 22.4C39.2005 22.8418 38.8423 23.2001 38.4005 23.2001C37.9587 23.2001 37.6005 22.8418 37.6005 22.4C37.601 21.9584 37.9589 21.6005 38.4005 21.6Z" fill="#11004D"/>
<path d="M24.8003 6.39941C23.4748 6.39941 22.4003 7.47393 22.4003 8.79945C22.4003 10.125 23.4748 11.1995 24.8003 11.1995C26.1258 11.1995 27.2003 10.125 27.2003 8.79945C27.1988 7.47453 26.1251 6.40091 24.8003 6.39941ZM24.8003 9.59946C24.3585 9.59946 24.0003 9.24125 24.0003 8.79945C24.0003 8.35764 24.3585 7.99944 24.8003 7.99944C25.2421 7.99944 25.6003 8.35764 25.6003 8.79945C25.5998 9.24105 25.2419 9.59896 24.8003 9.59946Z" fill="#00D8D5"/>
<path d="M24.8004 3.19922C21.709 3.20272 19.2038 5.70785 19.2003 8.79929C19.2003 13.1771 24.1461 16.5247 24.3566 16.665C24.6253 16.8442 24.9755 16.8442 25.2442 16.665C25.4547 16.5247 30.4005 13.1771 30.4005 8.79929C30.397 5.70785 27.8918 3.20262 24.8004 3.19922ZM24.7994 15.0087C24.151 14.5091 23.5453 13.9566 22.9883 13.3567C21.9904 12.2754 20.8003 10.607 20.8003 8.79929C20.8003 6.59016 22.5913 4.79924 24.8004 4.79924C27.0095 4.79924 28.8005 6.59016 28.8005 8.79929C28.8005 11.6441 25.924 14.1413 24.7994 15.0087Z" fill="#00D8D5"/>
<path d="M31.2003 37.5996H32.8004V39.1996H31.2003V37.5996Z" fill="#00D8D5"/>
<path d="M38.4005 33.5996H40.0005V35.1996H38.4005V33.5996Z" fill="#00D8D5"/>
<path opacity="0.8" d="M25.6003 19.1992H27.2003V20.7992H25.6003V19.1992Z" fill="#11004D"/>
<path opacity="0.8" d="M4 18.3994H5.60002V19.9994H4V18.3994Z" fill="#11004D"/>
<path opacity="0.8" d="M13.6002 5.59961H15.2002V7.19964H13.6002V5.59961Z" fill="#11004D"/>
<path opacity="0.8" d="M33.6005 6.39941H35.2005V7.99944H33.6005V6.39941Z" fill="#11004D"/>
</g>
<defs>
<clipPath id="clip0_2_977">
<rect width="48" height="48" fill="white"/>
</clipPath>
</defs>
</svg>
