<svg width="40" height="40" viewBox="0 0 40 40" fill="none" xmlns="http://www.w3.org/2000/svg">
<path d="M20 40C31.0457 40 40 31.0457 40 20C40 8.9543 31.0457 0 20 0C8.9543 0 0 8.9543 0 20C0 31.0457 8.9543 40 20 40Z" fill="#00D8BE"/>
<path opacity="0.05" d="M29.5001 15.5L8 26L21.0163 39.9747C30.4105 39.5045 38.0963 32.5525 39.694 23.5C39.694 23.5 33.0479 17.36 29.5001 15.5Z" fill="#11004D"/>
<path d="M28.4563 15.5093H23.5007V24.491H31.6201V20.4484L30.6731 17.1756C30.3877 16.1887 29.4837 15.5093 28.4563 15.5093Z" fill="#FF6D6E"/>
<path d="M30.4347 20.4069L29.5908 17.4896C29.4453 16.9882 28.9788 16.6372 28.4563 16.6372H24.6287V20.4069H30.4347Z" fill="#84DBFF"/>
<path d="M30.4355 20.4054H24.6265V16.6357L30.4355 20.4054Z" fill="#CDD6E0"/>
<path d="M30.4347 20.4069L29.5908 17.4896C29.4453 16.9882 28.9788 16.6372 28.4563 16.6372H24.6287L30.4347 20.4069Z" fill="#F2F2F2"/>
<path d="M9.49987 11H22.0008C22.8287 11 23.5007 11.6714 23.5007 12.4999V24.4904H8V12.4999C8 11.6715 8.67143 11 9.49987 11Z" fill="#F6C358"/>
<path d="M18.159 11.0024V14.9656L17.579 14.3856L16.9711 14.9936L16.3636 14.3856L15.7562 14.9936L15.1477 14.3856L14.5323 14.9936L13.9253 14.3856L13.3384 14.9726V11.0024H18.159Z" fill="#F2F2F2"/>
<path d="M31.9999 24.4898V26.1847H8.00195V24.4898H10.5067C11.0917 23.4399 12.2166 22.73 13.5065 22.73C14.7914 22.73 15.9163 23.4399 16.5062 24.4898H24.5656C25.1505 23.4399 26.2699 22.73 27.5598 22.73C28.8497 22.73 29.9696 23.4399 30.5596 24.4898H31.9999Z" fill="#334A5E"/>
<path d="M29.9551 26.1741C29.9551 27.497 28.8827 28.5694 27.5598 28.5694C26.237 28.5694 25.1655 27.497 25.1655 26.1741C25.1655 24.8512 26.2374 23.7788 27.5598 23.7788C28.8832 23.7788 29.9551 24.8512 29.9551 26.1741Z" fill="#40596B"/>
<path d="M28.5228 26.1743C28.5228 26.7058 28.0918 27.1363 27.5608 27.1363C27.0293 27.1363 26.5979 26.7058 26.5979 26.1743C26.5979 25.6429 27.0289 25.2124 27.5608 25.2124C28.0918 25.2119 28.5228 25.6429 28.5228 26.1743Z" fill="#ACB3BA"/>
<path d="M15.9 26.1741C15.9 27.497 14.827 28.5694 13.5047 28.5694C12.1818 28.5694 11.1094 27.497 11.1094 26.1741C11.1094 24.8512 12.1818 23.7788 13.5047 23.7788C14.827 23.7788 15.9 24.8512 15.9 26.1741Z" fill="#40596B"/>
<path d="M14.4663 26.1743C14.4663 26.7058 14.0359 27.1363 13.5044 27.1363C12.9729 27.1363 12.542 26.7058 12.542 26.1743C12.542 25.6429 12.973 25.2124 13.5044 25.2124C14.0358 25.2124 14.4663 25.6429 14.4663 26.1743Z" fill="#ACB3BA"/>
</svg>
