<svg width="40" height="40" viewBox="0 0 40 40" fill="none" xmlns="http://www.w3.org/2000/svg">
<path d="M20 40C31.0457 40 40 31.0457 40 20C40 8.9543 31.0457 0 20 0C8.9543 0 0 8.9543 0 20C0 31.0457 8.9543 40 20 40Z" fill="#F5F5F6"/>
<path opacity="0.05" d="M39.9749 20.9915L31.4583 12.4749V12.4541L31.4416 12.4582L20 8.5415L8.55831 12.4582L8.54163 12.4541V27.4998L21.0162 39.9745C31.2614 39.4617 39.4746 31.2398 39.9749 20.9915Z" fill="#11004D"/>
<path d="M20 16.3883L8.54175 12.4521V27.4978L20.0001 31.4578L20 16.3883Z" fill="#FCD462"/>
<path d="M20.0001 16.3883L31.4586 12.4521V27.4978L20.0002 31.4578L20.0001 16.3883Z" fill="#E5B053"/>
<path d="M19.9998 8.5415L8.54163 12.4651L19.9998 16.3887L31.4583 12.4651L19.9998 8.5415Z" fill="#F6C358"/>
<path d="M24.305 10.0156L12.8468 13.9392L15.6953 14.9144L27.1532 10.9909L24.305 10.0156Z" fill="#CE7A41"/>
<path d="M15.6956 14.9149V18.5649L13.9706 17.8066L12.8456 17.3108V13.9399L13.9706 14.3233L15.6956 14.9149Z" fill="#DC8744"/>
</svg>
