<svg width="16" height="19" viewBox="0 0 16 19" fill="none" xmlns="http://www.w3.org/2000/svg">
<g opacity="0.3">
<path d="M14.8919 7.95946C14.8919 13.3514 7.95946 17.973 7.95946 17.973C7.95946 17.973 1.02703 13.3514 1.02703 7.95946C1.02703 6.12087 1.75741 4.35757 3.05749 3.05749C4.35757 1.75741 6.12086 1.02703 7.95946 1.02703C9.79805 1.02703 11.5613 1.75741 12.8614 3.05749C14.1615 4.35757 14.8919 6.12087 14.8919 7.95946V7.95946Z" stroke="#11004D" stroke-width="2" stroke-miterlimit="10" stroke-linecap="round" stroke-linejoin="round"/>
<path d="M7.95946 10.2703C9.23569 10.2703 10.2703 9.23569 10.2703 7.95946C10.2703 6.68323 9.23569 5.64865 7.95946 5.64865C6.68323 5.64865 5.64865 6.68323 5.64865 7.95946C5.64865 9.23569 6.68323 10.2703 7.95946 10.2703Z" stroke="#11004D" stroke-width="2" stroke-miterlimit="10" stroke-linecap="round" stroke-linejoin="round"/>
</g>
</svg>
