<svg width="180" height="48" viewBox="0 0 180 48" fill="none" xmlns="http://www.w3.org/2000/svg">
<rect opacity="0.1" x="66.5" y="0.5" width="47" height="47" rx="11.5" stroke="#11004D"/>
<path d="M97.9995 27.9791V30.3877C98.0004 30.6113 97.9545 30.8327 97.8648 31.0375C97.775 31.2424 97.6434 31.4263 97.4783 31.5775C97.3132 31.7286 97.1183 31.8437 96.906 31.9154C96.6938 31.987 96.4689 32.0136 96.2457 31.9935C93.7702 31.725 91.3923 30.8808 89.3031 29.5286C87.3594 28.2959 85.7114 26.6512 84.4763 24.7113C83.1167 22.6168 82.2706 20.2321 82.0065 17.7504C81.9864 17.5283 82.0129 17.3046 82.0842 17.0933C82.1555 16.882 82.2701 16.6879 82.4206 16.5233C82.5712 16.3586 82.7545 16.2271 82.9589 16.137C83.1632 16.0469 83.3841 16.0003 83.6074 16.0001H86.0209C86.4113 15.9962 86.7898 16.1342 87.0858 16.3883C87.3818 16.6424 87.5752 16.9952 87.6298 17.381C87.7317 18.1519 87.9206 18.9087 88.1929 19.6371C88.3012 19.9245 88.3246 20.2368 88.2604 20.5371C88.1963 20.8373 88.0472 21.1129 87.8309 21.3312L86.8092 22.3509C87.9545 24.3609 89.6221 26.0252 91.6361 27.1682L92.6578 26.1485C92.8765 25.9326 93.1527 25.7839 93.4535 25.7198C93.7544 25.6558 94.0673 25.6792 94.3552 25.7872C95.0851 26.059 95.8435 26.2476 96.6158 26.3492C97.0066 26.4042 97.3635 26.6007 97.6186 26.9012C97.8737 27.2017 98.0093 27.5853 97.9995 27.9791Z" stroke="#11004D" stroke-width="2" stroke-linecap="round" stroke-linejoin="round"/>
<rect opacity="0.1" x="0.5" y="0.5" width="47" height="47" rx="11.5" stroke="#11004D"/>
<g opacity="0.8">
<path d="M16.75 17H30.75C31.2137 17.0014 31.658 17.1862 31.9859 17.5141C32.3138 17.842 32.4986 18.2863 32.5 18.75V29.25C32.4986 29.7137 32.3138 30.158 31.9859 30.4859C31.658 30.8138 31.2137 30.9986 30.75 31H16.75C16.2863 30.9986 15.842 30.8138 15.5141 30.4859C15.1862 30.158 15.0014 29.7137 15 29.25V18.75C15.0014 18.2863 15.1862 17.842 15.5141 17.5141C15.842 17.1862 16.2863 17.0014 16.75 17V17Z" stroke="#11004D" stroke-width="2" stroke-linecap="round" stroke-linejoin="round"/>
<path d="M32.5 18.75L23.75 24.875L15 18.75" stroke="#11004D" stroke-width="2" stroke-linecap="round" stroke-linejoin="round"/>
</g>
<rect x="132" width="48" height="48" rx="12" fill="#00D8D5"/>
<path d="M167 23.717C167 29.6354 162.165 34.4333 156.199 34.4333C154.306 34.4333 152.528 33.949 150.979 33.1011L145 35L146.949 29.2487C145.966 27.6346 145.4 25.7393 145.4 23.7163C145.401 17.7979 150.235 13 156.201 13C162.166 13.0014 167 17.7986 167 23.717ZM156.198 14.7088C151.192 14.7088 147.119 18.7505 147.119 23.7191C147.119 25.6905 147.762 27.5155 148.849 29.0005L147.715 32.3457L151.203 31.2373C152.638 32.1785 154.355 32.7266 156.198 32.7266C161.205 32.7266 165.279 28.6856 165.279 23.717C165.28 18.7505 161.206 14.7088 156.198 14.7088ZM161.653 26.1855C161.586 26.0772 161.409 26.0112 161.145 25.8792C160.882 25.7472 159.579 25.1123 159.337 25.0262C159.093 24.938 158.917 24.8935 158.74 25.1568C158.566 25.4201 158.058 26.0112 157.902 26.1877C157.748 26.3634 157.594 26.3857 157.329 26.2558C157.064 26.1224 156.211 25.8469 155.199 24.9523C154.412 24.255 153.88 23.3963 153.727 23.133C153.571 22.8705 153.711 22.7284 153.842 22.5979C153.961 22.4795 154.107 22.2908 154.24 22.1366C154.373 21.9838 154.416 21.8755 154.505 21.6997C154.591 21.524 154.548 21.3711 154.482 21.2384C154.416 21.1064 153.888 19.8151 153.666 19.2893C153.446 18.7642 153.226 18.851 153.071 18.851C152.916 18.851 152.74 18.8295 152.563 18.8295C152.387 18.8295 152.1 18.8933 151.858 19.1566C151.616 19.4199 150.932 20.0547 150.932 21.3475C150.932 22.6416 151.88 23.8892 152.012 24.0642C152.146 24.2385 153.845 26.9782 156.536 28.0299C159.228 29.0809 159.228 28.7301 159.713 28.6856C160.199 28.6411 161.28 28.0507 161.499 27.4381C161.72 26.8225 161.72 26.2953 161.653 26.1855Z" fill="white"/>
</svg>
