<svg width="16" height="4" viewBox="0 0 16 4" fill="none" xmlns="http://www.w3.org/2000/svg">
<g opacity="0.8">
<path d="M8.875 1.875C8.875 1.39175 8.48325 1 8 1C7.51675 1 7.125 1.39175 7.125 1.875C7.125 2.35825 7.51675 2.75 8 2.75C8.48325 2.75 8.875 2.35825 8.875 1.875Z" stroke="#11004D" stroke-width="2" stroke-linecap="round" stroke-linejoin="round"/>
<path d="M2.75 1.875C2.75 1.39175 2.35825 1 1.875 1C1.39175 1 1 1.39175 1 1.875C1 2.35825 1.39175 2.75 1.875 2.75C2.35825 2.75 2.75 2.35825 2.75 1.875Z" stroke="#11004D" stroke-width="2" stroke-linecap="round" stroke-linejoin="round"/>
<path d="M15 1.875C15 1.39175 14.6082 1 14.125 1C13.6418 1 13.25 1.39175 13.25 1.875C13.25 2.35825 13.6418 2.75 14.125 2.75C14.6082 2.75 15 2.35825 15 1.875Z" stroke="#11004D" stroke-width="2" stroke-linecap="round" stroke-linejoin="round"/>
</g>
</svg>
