<svg width="22" height="18" viewBox="0 0 22 18" fill="none" xmlns="http://www.w3.org/2000/svg">
<path d="M0.999978 1.88717V7.22178H6.45436" stroke="white" stroke-width="2" stroke-linecap="round" stroke-linejoin="round"/>
<path d="M21.0001 16.1127V10.7781H15.5457" stroke="white" stroke-width="2" stroke-linecap="round" stroke-linejoin="round"/>
<path d="M18.7176 6.33249C18.2566 5.05822 17.473 3.91894 16.44 3.02096C15.407 2.12298 14.1583 1.49556 12.8103 1.19726C11.4623 0.898963 10.059 0.939497 8.7314 1.31508C7.40376 1.69067 6.19505 2.38907 5.21804 3.34511L0.999978 7.22159M20.9994 10.778L16.7813 14.6545C15.8043 15.6105 14.5956 16.3089 13.268 16.6845C11.9403 17.0601 10.5371 17.1006 9.18909 16.8023C7.84111 16.504 6.59236 15.8766 5.55936 14.9786C4.52636 14.0807 3.74278 12.9414 3.28173 11.6671" stroke="white" stroke-width="2" stroke-linecap="round" stroke-linejoin="round"/>
</svg>
