<svg width="20" height="20" viewBox="0 0 20 20" fill="none" xmlns="http://www.w3.org/2000/svg">
<g opacity="0.3">
<path d="M10.0006 13.5612C11.9863 13.5612 13.5961 11.9557 13.5961 9.97527C13.5961 7.99482 11.9863 6.38935 10.0006 6.38935C8.01482 6.38935 6.40506 7.99482 6.40506 9.97527C6.40506 11.9557 8.01482 13.5612 10.0006 13.5612Z" stroke="#11004D" stroke-width="2" stroke-linecap="round" stroke-linejoin="round"/>
<path d="M13.5955 6.38962V10.8721C13.5955 11.5854 13.8796 12.2694 14.3853 12.7738C14.8911 13.2782 15.577 13.5615 16.2921 13.5615C17.0073 13.5615 17.6932 13.2782 18.1989 12.7738C18.7047 12.2694 18.9888 11.5854 18.9888 10.8721V9.97558C18.9886 7.95223 18.3022 5.98842 17.0412 4.40347C15.7801 2.81853 14.0185 1.70566 12.0428 1.24583C10.0672 0.785992 7.99366 1.00623 6.15942 1.87074C4.32519 2.73525 2.83812 4.19318 1.94002 6.00747C1.04191 7.82175 0.785596 9.88569 1.21274 11.8637C1.63989 13.8417 2.72538 15.6174 4.29271 16.9021C5.86004 18.1868 7.81703 18.9049 9.84546 18.9397C11.8739 18.9745 13.8545 18.3239 15.4652 17.0937" stroke="#11004D" stroke-width="2" stroke-linecap="round" stroke-linejoin="round"/>
</g>
</svg>
