<svg width="22" height="18" viewBox="0 0 22 18" fill="none" xmlns="http://www.w3.org/2000/svg">
<g opacity="0.3">
<path d="M14.4857 0.771429H0.771429V12.6571H14.4857V0.771429Z" stroke="#11004D" stroke-width="1.5" stroke-linecap="round" stroke-linejoin="round"/>
<path d="M14.486 5.34275H18.1432L20.886 8.0856V12.657H14.486V5.34275Z" stroke="#11004D" stroke-width="1.5" stroke-linecap="round" stroke-linejoin="round"/>
<path d="M4.88552 17.2287C6.14788 17.2287 7.17123 16.2053 7.17123 14.943C7.17123 13.6806 6.14788 12.6573 4.88552 12.6573C3.62315 12.6573 2.5998 13.6806 2.5998 14.943C2.5998 16.2053 3.62315 17.2287 4.88552 17.2287Z" stroke="#11004D" stroke-width="1.5" stroke-linecap="round" stroke-linejoin="round"/>
<path d="M16.7717 17.2287C18.0341 17.2287 19.0574 16.2053 19.0574 14.943C19.0574 13.6806 18.0341 12.6573 16.7717 12.6573C15.5094 12.6573 14.486 13.6806 14.486 14.943C14.486 16.2053 15.5094 17.2287 16.7717 17.2287Z" stroke="#11004D" stroke-width="1.5" stroke-linecap="round" stroke-linejoin="round"/>
</g>
</svg>
