<svg width="20" height="20" viewBox="0 0 20 20" fill="none" xmlns="http://www.w3.org/2000/svg">
<g opacity="0.3">
<path d="M18.9994 14.4407V17.1432C19.0005 17.3941 18.9488 17.6424 18.8479 17.8723C18.7469 18.1022 18.5988 18.3085 18.4131 18.4781C18.2273 18.6477 18.008 18.7769 17.7693 18.8573C17.5305 18.9376 17.2775 18.9675 17.0265 18.9449C14.2415 18.6437 11.5664 17.6965 9.21601 16.1793C7.02929 14.7962 5.17534 12.9508 3.7858 10.7742C2.25627 8.42413 1.30442 5.74843 1.00735 2.96393C0.98473 2.71481 1.01447 2.46374 1.09468 2.2267C1.17489 1.98965 1.30381 1.77183 1.47323 1.5871C1.64265 1.40236 1.84885 1.25476 2.07872 1.1537C2.30858 1.05264 2.55707 1.00032 2.80837 1.00009H5.52347C5.96269 0.995785 6.3885 1.1506 6.72152 1.43567C7.05455 1.72075 7.27207 2.11664 7.33354 2.54954C7.44814 3.41441 7.66067 4.2636 7.96707 5.08091C8.08883 5.40334 8.11519 5.75376 8.043 6.09065C7.97082 6.42753 7.80313 6.73676 7.5598 6.98169L6.41041 8.12576C7.69877 10.3811 9.57482 12.2484 11.8406 13.5308L12.99 12.3868C13.2361 12.1446 13.5467 11.9776 13.8852 11.9058C14.2236 11.8339 14.5757 11.8602 14.8996 11.9814C15.7207 12.2864 16.5739 12.4979 17.4428 12.612C17.8824 12.6737 18.2839 12.8941 18.5709 13.2313C18.858 13.5685 19.0105 13.9989 18.9994 14.4407Z" stroke="#11004D" stroke-width="2" stroke-linecap="round" stroke-linejoin="round"/>
</g>
</svg>
