<svg width="80" height="71" viewBox="0 0 80 71" fill="none" xmlns="http://www.w3.org/2000/svg">
<path d="M36.6322 39.6161L10.8044 25.0043L0 32.1044L23.6668 46.4073L36.6322 39.6161Z" fill="#11004D"/>
<path d="M23.5632 49.803C23.2304 49.7961 22.9076 49.6883 22.6371 49.4943L12.0385 43.1145V53.3015C12.1073 54.9506 12.9953 56.4563 14.4052 57.3145L37.1459 70.5885L37.7633 71.0002V42.1885L23.9749 49.5972L23.5632 49.803Z" fill="#11004D"/>
<path d="M36.6325 6.68843L23.6671 0L0.000307668 14.3029L10.8047 21.403L36.6325 6.68843Z" fill="#11004D"/>
<path d="M79.6463 14.3029L55.9793 0L43.0141 6.68843L68.9447 21.403L79.6463 14.3029Z" fill="#11004D"/>
<path d="M43.0141 39.6161L55.9793 46.4073L79.6463 32.1044L68.9447 25.0043L43.0141 39.6161Z" fill="#11004D"/>
<path d="M55.9801 49.803L55.1568 49.5972L40.8539 42.1885V71.0004C41.8828 70.8975 41.6772 70.7945 41.8828 70.5887L65.241 57.3147C66.6943 56.5003 67.5981 54.9677 67.6076 53.3017V43.1147L56.906 49.4945L55.9801 49.803Z" fill="#11004D"/>
<path d="M39.8241 8.4375L13.7905 23.2549L39.8241 37.8666L65.9605 23.2549L39.8241 8.4375Z" fill="#11004D"/>
</svg>
