<svg width="22" height="22" viewBox="0 0 22 22" fill="none" xmlns="http://www.w3.org/2000/svg">
<path d="M11 1L11 21" stroke="#FFCD00" stroke-width="2" stroke-linecap="round"/>
<path d="M1 11H21" stroke="#FFCD00" stroke-width="2" stroke-linecap="round"/>
<path d="M11 19.5707C15.7336 19.5707 19.571 15.7333 19.571 10.9997C19.571 6.26608 15.7336 2.42871 11 2.42871C6.26634 2.42871 2.42897 6.26608 2.42897 10.9997C2.42897 15.7333 6.26634 19.5707 11 19.5707Z" fill="white"/>
<path d="M11 18.5707C15.1813 18.5707 18.571 15.1811 18.571 10.9997C18.571 6.81836 15.1813 3.42871 11 3.42871C6.81862 3.42871 3.42897 6.81836 3.42897 10.9997C3.42897 15.1811 6.81862 18.5707 11 18.5707Z" stroke="#FFCD00" stroke-width="2"/>
<path d="M11 14.8104C13.1042 14.8104 14.81 13.1046 14.81 11.0004C14.81 8.89622 13.1042 7.19043 11 7.19043C8.89577 7.19043 7.18997 8.89622 7.18997 11.0004C7.18997 13.1046 8.89577 14.8104 11 14.8104Z" fill="white"/>
<path d="M11 13.8104C12.5519 13.8104 13.81 12.5524 13.81 11.0004C13.81 9.44851 12.5519 8.19043 11 8.19043C9.44805 8.19043 8.18997 9.44851 8.18997 11.0004C8.18997 12.5524 9.44805 13.8104 11 13.8104Z" stroke="#FFCD00" stroke-width="2"/>
</svg>
