<svg width="17" height="19" viewBox="0 0 17 19" fill="none" xmlns="http://www.w3.org/2000/svg">
<g opacity="0.3">
<path d="M12.2412 7.16799L4.75747 2.8524" stroke="#11004D" stroke-width="2" stroke-linecap="round" stroke-linejoin="round"/>
<path d="M15.9837 12.6559V6.00372C15.9834 5.71209 15.9064 5.42566 15.7604 5.17317C15.6145 4.92068 15.4047 4.71101 15.1522 4.56519L9.33151 1.23911C9.07869 1.09315 8.79191 1.0163 8.49999 1.0163C8.20806 1.0163 7.92128 1.09315 7.66847 1.23911L1.84782 4.56519C1.59526 4.71101 1.38548 4.92068 1.23953 5.17317C1.09359 5.42566 1.0166 5.71209 1.0163 6.00372V12.6559C1.0166 12.9475 1.09359 13.2339 1.23953 13.4864C1.38548 13.7389 1.59526 13.9486 1.84782 14.0944L7.66847 17.4205C7.92128 17.5665 8.20806 17.6433 8.49999 17.6433C8.79191 17.6433 9.07869 17.5665 9.33151 17.4205L15.1522 14.0944C15.4047 13.9486 15.6145 13.7389 15.7604 13.4864C15.9064 13.2339 15.9834 12.9475 15.9837 12.6559Z" stroke="#11004D" stroke-width="2" stroke-linecap="round" stroke-linejoin="round"/>
<path d="M1.24023 5.13908L8.49941 9.33826L15.7586 5.13908" stroke="#11004D" stroke-width="2" stroke-linecap="round" stroke-linejoin="round"/>
<path d="M8.49963 17.7111V9.32934" stroke="#11004D" stroke-width="2" stroke-linecap="round" stroke-linejoin="round"/>
</g>
</svg>
