<svg width="104" height="16" viewBox="0 0 104 16" fill="none" xmlns="http://www.w3.org/2000/svg">
<path d="M8 1L10.163 5.41855L15 6.13145L11.5 9.56888L12.326 14.425L8 12.1311L3.674 14.425L4.5 9.56888L1 6.13145L5.837 5.41855L8 1Z" fill="#FFCD00" stroke="#FEC631" stroke-width="2" stroke-linecap="round" stroke-linejoin="round"/>
<path d="M30 1L32.163 5.41855L37 6.13145L33.5 9.56888L34.326 14.425L30 12.1311L25.674 14.425L26.5 9.56888L23 6.13145L27.837 5.41855L30 1Z" fill="#FFCD00" stroke="#FEC631" stroke-width="2" stroke-linecap="round" stroke-linejoin="round"/>
<path d="M52 1L54.163 5.41855L59 6.13145L55.5 9.56888L56.326 14.425L52 12.1311L47.674 14.425L48.5 9.56888L45 6.13145L49.837 5.41855L52 1Z" fill="#FFCD00" stroke="#FEC631" stroke-width="2" stroke-linecap="round" stroke-linejoin="round"/>
<path opacity="0.06" d="M74 1L76.163 5.41855L81 6.13145L77.5 9.56888L78.326 14.425L74 12.1311L69.674 14.425L70.5 9.56888L67 6.13145L71.837 5.41855L74 1Z" fill="#11004D" stroke="#11004D" stroke-width="2" stroke-linecap="round" stroke-linejoin="round"/>
<path d="M70.5 9.56888L69.674 14.425L72.6 12.8735L74 12.1311V1L71.837 5.41855L67 6.13145L70.5 9.56888Z" fill="#FFCD00" stroke="#FEC631" stroke-width="2" stroke-linecap="round" stroke-linejoin="round"/>
<path opacity="0.06" d="M96 1L98.163 5.41855L103 6.13145L99.5 9.56888L100.326 14.425L96 12.1311L91.674 14.425L92.5 9.56888L89 6.13145L93.837 5.41855L96 1Z" fill="#11004D" stroke="#11004D" stroke-width="2" stroke-linecap="round" stroke-linejoin="round"/>
</svg>
