<svg width="20" height="22" viewBox="0 0 20 22" fill="none" xmlns="http://www.w3.org/2000/svg">
<path d="M15.9999 6.99991C15.9999 5.40864 15.3678 3.88253 14.2426 2.75733C13.1174 1.63212 11.5913 0.999988 10 0.999988C8.40872 0.999988 6.88262 1.63212 5.75741 2.75733C4.63221 3.88253 4.00007 5.40864 4.00007 6.99991C4.00007 13.9998 1.00011 15.9998 1.00011 15.9998H18.9999C18.9999 15.9998 15.9999 13.9998 15.9999 6.99991Z" stroke="#11004D" stroke-width="2" stroke-linecap="round" stroke-linejoin="round"/>
<path d="M11.73 19.9998C11.5542 20.3028 11.3018 20.5544 10.9982 20.7293C10.6946 20.9042 10.3504 20.9962 10 20.9962C9.64964 20.9962 9.30542 20.9042 9.00181 20.7293C8.69819 20.5544 8.44585 20.3028 8.27004 19.9998" stroke="#11004D" stroke-width="2" stroke-linecap="round" stroke-linejoin="round"/>
</svg>
