<svg width="90" height="64" viewBox="0 0 90 64" fill="none" xmlns="http://www.w3.org/2000/svg">
<path d="M74.8058 9.5902L66.9485 14.1149L59.6247 9.89975V0.843751L74.8058 9.5902Z" fill="#CBC3BB"/>
<path d="M35.5453 33.0761V42.9554L34.0568 42.0926L20.7001 34.3801H20.6935L20.4696 34.2484L18.9613 33.3725V23.4932L35.5453 33.0761Z" fill="#CBC3BB"/>
<path d="M76.2283 9.58888V19.4681L68.8781 23.7162L35.5455 42.9545V33.0752L76.2283 9.58888Z" fill="#8E869C"/>
<path d="M59.6377 0.843751V9.90633L28.2348 28.0381L20.3841 23.5002L59.6377 0.843751Z" fill="#8E869C"/>
<path d="M66.9483 14.1136L35.5388 32.2454L28.2216 28.0302L59.6245 9.89845L66.9483 14.1136Z" fill="#DFE3E7"/>
<path d="M74.8055 9.58948L59.6376 0.84303L20.3839 23.4995L28.2347 28.0374L35.5519 32.2525L66.9482 14.1142L74.8055 9.58948ZM59.6244 0L76.2216 9.56314L35.5651 33.1153L18.9679 23.5456L59.6244 0Z" fill="#D1CCC0"/>
<path d="M31.0141 45.8603V47.6254L30.9746 47.6386L17.44 39.8208V38.0293L30.9746 45.834L31.0141 45.8603Z" fill="#A5B3BF"/>
<path d="M68.1668 26.1329L70.6169 24.7168V26.5083L68.1668 27.9309L35.5455 46.7542V44.9628L68.1668 26.1329Z" fill="#1A2738"/>
<path d="M35.5457 44.9649V46.7563L31.0144 47.6257V45.8606L30.9749 45.8343L35.5457 44.9649Z" fill="#1A2738"/>
<path d="M70.6168 24.7189L68.1667 26.1349L35.5454 44.9648L30.9746 45.8342L17.44 38.0296L18.9614 35.3885L20.6935 34.3808H20.7001L34.0569 42.0933L35.5454 42.956L68.878 23.7178L69.1283 23.8627L70.6168 24.7189Z" fill="#596876"/>
<path d="M23.3943 41.9482L23.4799 45.8538L23.2296 45.9328L23.2889 42.1721C23.2607 41.9233 23.1489 41.6914 22.9719 41.5144C22.7948 41.3373 22.5629 41.2256 22.3141 41.1974L20.3383 40.8944V40.6573L22.1297 40.9273L22.4327 40.9734C22.6791 41.0044 22.9079 41.1174 23.0824 41.2942C23.2568 41.471 23.3666 41.7014 23.3943 41.9482Z" fill="#7E8D9E"/>
<path d="M31.0142 45.8273V47.599L30.9879 47.6122L31.0142 47.6253L29.3084 48.6133V44.9448L31.0142 43.9503V45.801L30.9879 45.8141L31.0142 45.8273Z" fill="#2371AC"/>
<path d="M31.0142 42.4151V43.9497L29.3084 44.9442V43.4096L31.0142 42.4151Z" fill="#135C92"/>
<path d="M31.0142 42.311V42.4163L29.3084 43.4109V33.1364L31.0142 32.1485V42.311Z" fill="#135C92"/>
<path d="M29.5916 29.92L31.0142 32.1461L29.3084 33.134L27.8792 30.9079L29.5916 29.92Z" fill="#2371AC"/>
<path d="M29.3086 44.9708V48.6393L25.7784 50.6678C25.482 50.4966 25.1922 50.3253 24.9024 50.1673C24.4539 49.9715 23.9625 49.8946 23.4756 49.9442C22.9887 49.9939 22.5229 50.1682 22.1231 50.4505V49.1332L29.3086 44.9708Z" fill="#1D6497"/>
<path d="M29.3087 43.4092V44.9438L22.1166 49.0931V47.5585L29.3087 43.4092Z" fill="#0F4F7D"/>
<path d="M29.3087 33.1163V43.3907L22.1166 47.54V46.2886L22.3142 46.3281C22.489 46.3715 22.6732 46.3563 22.8386 46.2849C23.0039 46.2135 23.1413 46.0899 23.2297 45.933C23.2626 45.8539 23.3021 45.7881 23.3351 45.7156C23.3717 45.6279 23.3918 45.5341 23.3943 45.439V41.9483C23.3647 41.7007 23.2523 41.4704 23.0754 41.2946C22.8985 41.1189 22.6674 41.0081 22.4196 40.9802L22.1166 40.934V37.2919L29.3087 33.1163Z" fill="#181704"/>
<path d="M27.8794 30.9082L29.3086 33.1344L22.1165 37.2837L20.6939 35.0641L27.8794 30.9082Z" fill="#2371AC"/>
<path d="M27.0822 52.7747L26.6211 53.0381C26.5919 52.5617 26.4249 52.1041 26.1404 51.7209C25.8237 51.3587 25.3858 51.1245 24.9088 51.0622C24.6769 51.0409 24.4431 51.0587 24.2172 51.1149C23.6471 51.2642 23.1136 51.5287 22.6497 51.8921C22.4302 52.0589 22.2233 52.2416 22.0306 52.4388C20.7862 53.6638 19.9826 55.2664 19.7452 56.9964L19.3632 56.779C19.4402 56.2906 19.5682 55.8116 19.7452 55.3499C20.2108 54.1143 20.9337 52.9918 21.8659 52.0568C22.6958 51.2401 24.0262 50.3509 25.159 50.5024C25.3611 50.53 25.5583 50.5854 25.7452 50.6671C26.0586 50.8063 26.3342 51.0186 26.5487 51.2862C26.8552 51.7264 27.0393 52.24 27.0822 52.7747Z" fill="#596876"/>
<path d="M24.2172 51.1289C24.4431 51.0727 24.6769 51.0548 24.9088 51.0762C25.3858 51.1385 25.8237 51.3727 26.1404 51.7348C26.4249 52.118 26.5919 52.5757 26.6212 53.0521C26.3314 52.894 26.0416 52.7228 25.7518 52.5515C25.7101 52.4167 25.6503 52.2882 25.574 52.1695C25.3718 51.8314 25.0534 51.5785 24.6782 51.4582C24.327 51.3811 23.9631 51.3824 23.6125 51.4621C23.2618 51.5418 22.9331 51.6979 22.6497 51.9192C23.1125 51.5511 23.6461 51.2821 24.2172 51.1289Z" fill="#283C48"/>
<path d="M25.752 52.537C25.8596 52.8688 25.9129 53.2157 25.9101 53.5644C25.8558 54.5674 25.5808 55.546 25.105 56.4306C24.6291 57.3151 23.964 58.0838 23.1571 58.6819C22.8706 58.9222 22.5363 59.0987 22.1763 59.1998C21.8163 59.3008 21.4389 59.3241 21.0693 59.2681C20.93 59.2242 20.7972 59.1622 20.6741 59.0837C20.3374 58.8479 20.0747 58.5213 19.9167 58.1418C19.7811 57.7804 19.7249 57.3941 19.752 57.009C19.9894 55.2791 20.7931 53.6764 22.0374 52.4514C22.2301 52.2543 22.4371 52.0716 22.6565 51.9047C22.9399 51.6834 23.2686 51.5272 23.6193 51.4476C23.9699 51.3679 24.3339 51.3665 24.6851 51.4437C25.0602 51.564 25.3786 51.8169 25.5808 52.155C25.6548 52.274 25.7125 52.4025 25.752 52.537ZM25.212 53.9662C25.2549 53.6434 25.1954 53.3152 25.0418 53.028C24.8881 52.7409 24.6482 52.5092 24.3558 52.3658C24.0294 52.2399 23.6679 52.2399 23.3415 52.3658C22.8369 52.5447 22.3844 52.8456 22.0243 53.2417C21.1878 54.085 20.651 55.1793 20.4963 56.357C20.4501 56.6604 20.4501 56.9691 20.4963 57.2725C20.5265 57.4348 20.5845 57.5908 20.6675 57.7335C20.75 57.8877 20.8593 58.0259 20.9902 58.1418C22.3536 59.2878 25.1395 56.7061 25.212 53.9662Z" fill="#283C48"/>
<path d="M25.7781 50.6403C25.5913 50.5587 25.394 50.5033 25.192 50.4757C24.0526 50.3242 22.7222 51.2133 21.8989 52.03C20.9667 52.9651 20.2438 54.0876 19.7781 55.3231V54.6974L18.9483 54.2166C19.7273 52.7181 20.8188 51.4042 22.1492 50.3637C22.549 50.0815 23.0148 49.9071 23.5017 49.8575C23.9886 49.8079 24.48 49.8847 24.9285 50.0805C25.2183 50.2386 25.5081 50.4098 25.8045 50.5811L25.7781 50.6403Z" fill="#717F90"/>
<path d="M24.3559 52.3663C24.6483 52.5097 24.8883 52.7414 25.0419 53.0285C25.1955 53.3157 25.2551 53.6439 25.2121 53.9667C25.1397 56.7066 22.3537 59.2883 20.9904 58.1424C21.4736 58.2544 21.9814 58.1741 22.4064 57.9184C23.0566 57.5667 23.5952 57.0396 23.9608 56.397C24.4941 55.618 24.7998 54.7057 24.8433 53.7625C24.8731 53.3179 24.7448 52.877 24.4811 52.5178L24.3493 52.3729L24.3559 52.3663Z" fill="#596876"/>
<path d="M24.4875 52.5176C24.7512 52.8769 24.8795 53.3178 24.8497 53.7624C24.8061 54.7056 24.5005 55.6179 23.9672 56.3969C23.6015 57.0395 23.063 57.5666 22.4128 57.9183C21.9878 58.174 21.48 58.2543 20.9968 58.1423C20.8659 58.0263 20.7566 57.8881 20.6741 57.7339C20.591 57.5912 20.5331 57.4352 20.5028 57.2729C21.0956 57.8261 22.0045 57.4375 22.6302 56.8843C22.8041 56.89 22.9769 56.8548 23.1347 56.7816C23.2926 56.7084 23.431 56.5992 23.5391 56.4628C23.9341 56.0538 24.168 55.5158 24.1977 54.948C24.2097 54.7519 24.1513 54.5581 24.033 54.4013C24.0813 54.1851 24.1056 53.9642 24.1055 53.7427C24.1449 53.4538 24.0875 53.1601 23.942 52.9074C23.7966 52.6547 23.5715 52.4574 23.302 52.3464C23.6283 52.2206 23.9898 52.2206 24.3162 52.3464L24.4875 52.5176Z" fill="#596876"/>
<path d="M24.0661 54.401C24.1844 54.5577 24.2428 54.7516 24.2307 54.9476C24.201 55.5155 23.9671 56.0535 23.5721 56.4625C23.4641 56.5989 23.3256 56.7081 23.1678 56.7813C23.0099 56.8545 22.8371 56.8896 22.6632 56.884C22.5997 56.8805 22.5383 56.86 22.4854 56.8247C22.3561 56.7324 22.2578 56.603 22.2037 56.4536C22.1496 56.3042 22.1422 56.142 22.1824 55.9883C22.2461 55.4757 22.4777 54.9986 22.8411 54.6315C23.2362 54.2297 23.6314 54.1375 23.8948 54.2561C23.9613 54.292 24.0196 54.3414 24.0661 54.401Z" fill="#A5B3BF"/>
<path d="M23.8818 54.2499L23.2232 53.8679C23.0776 53.8127 22.9197 53.7983 22.7665 53.8261C22.6133 53.854 22.4706 53.9231 22.3538 54.026C21.8666 54.4059 21.5474 54.9615 21.4647 55.5737C21.4346 55.7279 21.4462 55.8874 21.4983 56.0356C21.5504 56.1838 21.6411 56.3154 21.761 56.4168L22.4789 56.8251C22.5318 56.8604 22.5932 56.8809 22.6567 56.8844C21.9981 57.4376 21.1222 57.8262 20.5294 57.273C20.4832 56.9696 20.4832 56.6609 20.5294 56.3575C20.6841 55.1799 21.2209 54.0855 22.0574 53.2422C22.4176 52.8461 22.8701 52.5452 23.3746 52.3663C23.6442 52.4773 23.8693 52.6746 24.0147 52.9273C24.1601 53.1799 24.2176 53.4737 24.1782 53.7625C24.1783 53.9841 24.154 54.205 24.1057 54.4212C24.0555 54.3601 23.9925 54.3107 23.9213 54.2763L23.8818 54.2499Z" fill="#495560"/>
<path d="M23.8812 54.2509C23.6178 54.1323 23.2226 54.2509 22.8275 54.6263C22.4641 54.9934 22.2325 55.4705 22.1689 55.9831C22.1286 56.1368 22.1361 56.2991 22.1902 56.4484C22.2443 56.5978 22.3425 56.7272 22.4718 56.8195L21.7539 56.4112C21.634 56.3097 21.5432 56.1781 21.4911 56.0299C21.439 55.8817 21.4274 55.7223 21.4575 55.5681C21.5403 54.9559 21.8595 54.4003 22.3467 54.0204C22.4635 53.9175 22.6062 53.8484 22.7594 53.8205C22.9126 53.7927 23.0705 53.8071 23.2161 53.8623L23.8812 54.2509Z" fill="#717F90"/>
<path d="M22.1164 46.2874L20.325 46.0174V40.8868L22.3008 41.1897C22.5496 41.2179 22.7815 41.3297 22.9586 41.5068C23.1356 41.6838 23.2474 41.9157 23.2756 42.1645V45.6617C23.2788 45.7532 23.2583 45.8439 23.2163 45.9252C23.128 46.0821 22.9906 46.2058 22.8252 46.2771C22.6598 46.3485 22.4756 46.3637 22.3008 46.3204L22.1164 46.2874Z" fill="#ACBED0"/>
<path d="M22.1165 49.0928V50.4101C20.7862 51.4506 19.6947 52.7644 18.9157 54.263L18.6785 54.1247L15.886 55.7317L17.8289 52.3991L22.1165 49.0928Z" fill="#2371AC"/>
<path d="M22.1163 47.5587V49.0932L17.8288 52.3929L20.3249 48.5927L22.1163 47.5587Z" fill="#135C92"/>
<path d="M22.1164 46.2945V47.559L20.325 48.5931V46.0245L22.1164 46.2945Z" fill="#135C92"/>
<path d="M22.1164 37.2833V40.9254L20.325 40.6488V38.3239L22.1164 37.2833Z" fill="#135C92"/>
<path d="M20.6934 35.0645L22.116 37.284L20.3246 38.3247L18.8954 36.0985L20.6934 35.0645Z" fill="#2371AC"/>
<path d="M20.6738 59.0853L20.8714 59.1906C20.1403 58.7691 19.1919 58.2554 18.4609 57.8734C18.2443 57.7342 18.0589 57.5518 17.9161 57.3376C17.7733 57.1234 17.6762 56.8821 17.631 56.6286L17.8681 56.4903L19.2907 57.307C19.4488 57.2214 19.6003 57.1358 19.7452 57.0435C19.718 57.4286 19.7742 57.815 19.9098 58.1764C20.0749 58.5446 20.3395 58.8593 20.6738 59.0853Z" fill="#090000"/>
<path d="M20.3252 46.0245V48.5931L16.0442 49.4164L16.7555 38.7336L20.3252 38.3252V40.6502V40.8939V46.0245Z" fill="#A57666"/>
<path d="M17.1567 39.1228L19.8965 38.8067V48.2381L16.5047 48.8967L17.1567 39.1228Z" fill="#181704"/>
<path d="M18.8958 36.0989L20.325 38.325L16.7553 38.7334L17.8354 35.4864L18.8958 36.0989Z" fill="#3D93DF"/>
<path d="M20.3251 48.5938L17.829 52.394L11.7763 52.1899L16.0441 49.4171L20.3251 48.5938Z" fill="#2889DC"/>
<path d="M19.7456 54.7384V55.3706L17.8685 56.4574L17.6314 56.5957L15.6951 57.7087V57.0831L19.7456 54.7384Z" fill="#7E8D9E"/>
<path d="M19.7454 54.7374L15.6949 57.0821L10.9199 55.9822L1.90999 50.7791L0 48.0195L2.22613 46.7286L1.88364 48.3751L3.20747 50.2851L4.63008 51.115L10.314 54.3949L11.7761 55.2379L15.3326 56.048L15.8859 55.7319V55.7253L18.6784 54.1183L18.9155 54.2566L19.7454 54.7374Z" fill="#D1E2EE"/>
<path d="M17.8684 56.4567L19.7455 55.3634C19.5685 55.8251 19.4405 56.3041 19.3635 56.7926C19.3306 56.9506 19.3108 57.1153 19.291 57.2733L17.8684 56.4567Z" fill="#717F90"/>
<path d="M19.7453 57.0094C19.6005 57.1016 19.449 57.1872 19.2909 57.2728C19.2909 57.1148 19.3304 56.9501 19.3634 56.7921L19.7453 57.0094Z" fill="#596876"/>
<path d="M17.8353 35.4866L16.7552 38.7336L14.2393 37.2847L16.3798 34.6436L17.8353 35.4866Z" fill="#3D93DF"/>
<path d="M17.829 52.3937L15.886 55.7263L15.3328 56.0425L11.7763 55.2324V52.2159L17.829 52.3937ZM14.2131 55.4299C15.3328 55.2719 15.9321 54.0534 15.0167 53.408C13.9629 52.6835 11.8948 53.2697 12.3822 54.4552C12.5478 54.7882 12.8133 55.0611 13.1415 55.2358C13.4698 55.4106 13.8444 55.4785 14.2131 55.4299Z" fill="#3D93DF"/>
<path d="M16.7554 38.7338L16.0441 49.4166L13.5282 47.9676L7.83773 44.6745L5.35474 43.2453L5.46012 41.77L5.95409 34.3145L6.07263 32.5625L8.54902 33.9983L14.2395 37.2848L16.7554 38.7338Z" fill="#F0E0DC"/>
<path d="M5.80286 43.0079L5.8819 41.8026L6.44832 33.2735L14.0224 37.6533L16.3078 38.9705L15.6624 48.7049L5.80286 43.0079Z" fill="#4A4A36"/>
<path d="M16.3795 34.6442L14.2389 37.2853L8.54847 33.9988L10.689 31.3643L16.3795 34.6442Z" fill="#3D93DF"/>
<path d="M16.0438 49.4158L11.776 52.1886L10.3139 51.3522L13.5279 47.9669L16.0438 49.4158Z" fill="#2889DC"/>
<path d="M15.6952 57.0824V57.7081L10.9202 56.6082V55.9825L15.6952 57.0824Z" fill="#ACBED0"/>
<path d="M15.0163 53.4083C15.9317 54.0669 15.3324 55.2722 14.2127 55.4302C13.8451 55.4773 13.4719 55.4087 13.145 55.234C12.818 55.0594 12.5536 54.7873 12.3884 54.4555C11.8944 53.2699 13.9625 52.6838 15.0163 53.4083Z" fill="#F4F5F6"/>
<path d="M13.5278 47.9679L10.3138 51.3533L4.62989 48.0668L7.83736 44.6749L13.5278 47.9679Z" fill="#A0A3FD"/>
<path d="M11.776 52.1881V55.2375L10.3139 54.3944V51.3516L11.776 52.1881Z" fill="#3D93DF"/>
<path d="M10.9202 55.9824V56.6081L1.91028 51.4116V50.7794L10.9202 55.9824Z" fill="#ACBED0"/>
<path d="M10.6894 31.3643L8.54891 33.9988L6.07252 32.563L9.26682 30.5411L10.6894 31.3643Z" fill="#3D93DF"/>
<path d="M10.3138 51.353V54.3958L4.62989 51.1159V48.0665L10.3138 51.353Z" fill="#BBBEFF"/>
<path d="M18.8959 23.7491L8.20655 29.9203L18.8959 36.0981L29.5919 29.9203L18.8959 23.7491Z" fill="#2889DC"/>
<path d="M17.4665 24.3286L15.7541 25.3166L11.2096 27.9444L6.77052 30.4999L8.2063 29.9203L9.26668 29.3078L11.427 28.063L17.1899 24.737L18.8957 23.7491L17.4665 24.3286Z" fill="#377DCC"/>
<path d="M6.36888 31.6785L6.77065 30.4995L8.20643 29.92L9.26682 30.5391L6.07252 32.561L6.25693 32.0078L6.36888 31.6785Z" fill="#3D93DF"/>
<path d="M7.83785 44.6744L4.63039 48.0663L3.20777 47.243L5.35487 43.2452L7.83785 44.6744Z" fill="#2889DC"/>
<path d="M6.2567 32.0088L6.07229 32.5621L5.95374 34.314V32.1603C5.95374 31.91 5.99325 31.7454 6.0657 31.7256C6.12497 31.7256 6.19084 31.7981 6.2567 32.0088Z" fill="#ACBED0"/>
<path d="M5.46007 41.7696L5.35469 43.2449L3.20759 47.2427L2.85193 43.7454L5.46007 41.7696Z" fill="#2889DC"/>
<path d="M4.63039 48.0655V51.1149L3.20777 50.2851V47.2423L4.63039 48.0655Z" fill="#3D93DF"/>
<path d="M3.20786 47.2434V50.2862L1.89063 48.3762L2.2331 46.7297L2.8588 43.7462L3.20786 47.2434ZM3.10907 48.7714C3.12663 47.9888 3.05593 47.2067 2.89831 46.4399C2.68755 46.0184 2.19359 47.6781 2.54265 48.7978C2.59534 48.9492 2.71391 49.2324 2.86539 49.2983C3.01687 49.3642 3.0959 48.9887 3.10907 48.7714Z" fill="#3D93DF"/>
<path d="M2.89814 46.4382C3.05575 47.205 3.12646 47.9871 3.1089 48.7697C3.1089 48.987 3.0628 49.3822 2.86522 49.2966C2.66763 49.211 2.59517 48.9475 2.54248 48.796C2.19341 47.6764 2.68738 46.0167 2.89814 46.4382Z" fill="#F4F5F6"/>
<path d="M1.90999 50.7792V51.4115L0 48.6519V48.0196L1.90999 50.7792Z" fill="#ACBED0"/>
<path d="M62.898 34.142C63.4821 34.0833 64.0424 33.8805 64.5287 33.5517C65.015 33.2229 65.412 32.7785 65.684 32.2583C66.2197 31.48 66.5276 30.5676 66.5731 29.6238C66.5905 29.3692 66.555 29.1137 66.4688 28.8734C66.3827 28.6331 66.2478 28.4132 66.0726 28.2276C66.3675 28.3676 66.6108 28.5969 66.768 28.883C66.9252 29.1691 66.9884 29.4974 66.9485 29.8214C66.8497 32.4559 64.3141 34.9389 62.898 34.142Z" fill="#7E8D9E"/>
<path d="M62.2197 33.1552C62.7927 33.6952 63.662 33.3462 64.2746 32.8324C64.4574 32.8531 64.6425 32.8263 64.812 32.7548C64.9816 32.6833 65.1299 32.5694 65.2427 32.4241C65.6434 32.0189 65.8783 31.4787 65.9013 30.9093C65.9145 30.7172 65.861 30.5264 65.7499 30.3692C65.8075 30.1321 65.8363 29.8888 65.8355 29.6447C65.8355 28.828 65.4864 28.3736 65.0254 28.2485C65.3564 28.123 65.7218 28.123 66.0528 28.2485C66.228 28.4341 66.363 28.654 66.4491 28.8943C66.5352 29.1345 66.5707 29.3901 66.5534 29.6447C66.5079 30.5885 66.1999 31.5009 65.6642 32.2792C65.3922 32.7994 64.9953 33.2438 64.509 33.5726C64.0227 33.9014 63.4624 34.1042 62.8783 34.1628C62.6591 34.0414 62.4804 33.8582 62.3646 33.636C62.2815 33.4932 62.2236 33.3373 62.1933 33.1749L62.2197 33.1552Z" fill="#3F4F5D"/>
<path d="M63.1354 31.5269C63.2248 30.9171 63.5455 30.3652 64.0311 29.9857C64.149 29.8824 64.2925 29.8126 64.4466 29.7837C64.6007 29.7547 64.7597 29.7676 64.9071 29.8211L65.5657 30.2031C65.3022 30.0845 64.9071 30.2031 64.5185 30.5785C64.1562 30.949 63.925 31.4278 63.8599 31.9418C63.818 32.0929 63.8241 32.2531 63.8771 32.4006C63.9302 32.548 64.0277 32.6754 64.1562 32.7651L63.4384 32.3568C63.3194 32.2573 63.2287 32.1282 63.1756 31.9825C63.1224 31.8368 63.1085 31.6797 63.1354 31.5269Z" fill="#7E8D9E"/>
<path d="M62.1995 32.2327C62.3422 31.0547 62.8782 29.9594 63.7209 29.124C64.0858 28.7335 64.5369 28.4335 65.0382 28.2481C65.4992 28.3732 65.8483 28.8277 65.8483 29.6444C65.8491 29.8884 65.8203 30.1317 65.7627 30.3688C65.7106 30.3025 65.6426 30.2504 65.5651 30.2174L64.9065 29.8354C64.7591 29.7819 64.6001 29.769 64.446 29.7979C64.2919 29.8269 64.1484 29.8967 64.0305 30C63.5449 30.3795 63.2242 30.9314 63.1348 31.5412C63.1047 31.6954 63.1163 31.8548 63.1684 32.003C63.2205 32.1512 63.3112 32.2828 63.4312 32.3842L64.149 32.7925C64.1868 32.8183 64.2294 32.8362 64.2742 32.8452C63.6617 33.359 62.7923 33.708 62.2193 33.168C62.1619 32.8594 62.1552 32.5435 62.1995 32.2327Z" fill="#5D6571"/>
<path d="M63.8532 31.9557C63.9183 31.4417 64.1496 30.9629 64.5118 30.5924C64.9004 30.1906 65.2956 30.0984 65.559 30.217C65.6366 30.25 65.7046 30.3021 65.7566 30.3685C65.8678 30.5257 65.9213 30.7164 65.9081 30.9085C65.8851 31.4779 65.6502 32.0182 65.2495 32.4234C65.1366 32.5687 64.9883 32.6826 64.8188 32.7541C64.6492 32.8256 64.4642 32.8523 64.2813 32.8317C64.2365 32.8227 64.1939 32.8048 64.1562 32.779C64.0265 32.6902 63.9276 32.5632 63.8733 32.4157C63.8191 32.2682 63.812 32.1074 63.8532 31.9557Z" fill="#ACBED0"/>
<path d="M63.9186 35.0921C63.663 35.1941 63.3877 35.2376 63.1131 35.2193C62.8384 35.2011 62.5713 35.1216 62.3314 34.9867C61.6201 34.5652 60.8956 34.1502 60.1711 33.7287C60.2638 33.787 60.3633 33.8334 60.4675 33.867L60.9285 34.1305L61.4883 33.7748C61.3764 31.2853 63.1283 28.631 64.9329 27.4982C65.2079 27.3395 65.5207 27.2582 65.8381 27.2629C66.1555 27.2676 66.4657 27.3582 66.7359 27.525C67.006 27.6918 67.2259 27.9286 67.3723 28.2103C67.5187 28.492 67.5861 28.8081 67.5674 29.125C67.5674 29.237 67.5674 29.3555 67.5674 29.4741C67.6069 31.9109 65.631 34.5191 63.9186 35.0921ZM62.3841 33.6497C62.4999 33.8719 62.6786 34.0551 62.8978 34.1766C64.3138 34.9735 66.8495 32.4905 66.9285 29.8824C66.9715 29.5596 66.9119 29.2314 66.7583 28.9442C66.6047 28.6571 66.3647 28.4254 66.0723 28.282C65.7413 28.1565 65.3759 28.1565 65.0449 28.282C64.5436 28.4674 64.0925 28.7673 63.7276 29.1579C62.8849 29.9933 62.3489 31.0886 62.2062 32.2666C62.1568 32.572 62.1568 32.8833 62.2062 33.1887C62.242 33.34 62.3021 33.4846 62.3841 33.6168V33.6497Z" fill="#203844"/>
<path d="M64.9729 27.4709C65.2845 27.2395 65.642 27.0775 66.0214 26.9957C66.4008 26.9139 66.7934 26.9143 67.1726 26.9967C67.4312 27.0892 67.6687 27.2324 67.8711 27.4178C68.0736 27.6033 68.2369 27.8274 68.3516 28.0769C68.5627 28.5778 68.6486 29.1226 68.6019 29.6641L67.6073 29.0977C67.6261 28.7808 67.5587 28.4647 67.4123 28.183C67.2659 27.9013 67.0459 27.6645 66.7758 27.4977C66.5057 27.3309 66.1955 27.2404 65.878 27.2357C65.5606 27.2309 65.2478 27.3122 64.9729 27.4709Z" fill="#1A2738"/>
<path d="M60.9287 34.1104C60.7904 31.0083 63.2734 27.4122 65.6378 26.4638C66.2155 26.1927 66.8687 26.1276 67.4886 26.2794L67.7059 26.365C68.2094 26.6118 68.6137 27.0231 68.8519 27.5308C69.0951 28.0948 69.1947 28.7103 69.1417 29.3222V29.3749L68.5819 29.6647C68.6286 29.1231 68.5427 28.5784 68.3316 28.0774C68.2169 27.828 68.0536 27.6039 67.8511 27.4184C67.6487 27.2329 67.4112 27.0898 67.1527 26.9973C66.7734 26.9148 66.3808 26.9145 66.0014 26.9963C65.622 27.0781 65.2645 27.2401 64.9529 27.4715C63.1483 28.6043 61.3963 31.2586 61.5083 33.7481L60.9287 34.1104Z" fill="#283C48"/>
<path d="M62.3914 25.1726C63.087 24.7668 63.8989 24.6067 64.6965 24.7181C64.8929 24.744 65.0815 24.8114 65.2498 24.9157C65.7635 25.2055 66.2641 25.5019 66.7646 25.7917L67.713 26.3449L67.4957 26.2593C66.8758 26.1075 66.2227 26.1726 65.6449 26.4437C63.2805 27.3921 60.7975 30.9882 60.9358 34.0903L60.4748 33.8268L58.2487 32.5096C58.2246 31.6219 58.3745 30.7381 58.6899 29.9081C58.9576 29.1917 59.2951 28.5034 59.6976 27.8532C59.7898 27.7017 59.8952 27.537 59.994 27.3921C60.5923 26.4612 61.4172 25.6975 62.3914 25.1726Z" fill="#596876"/>
<g style="mix-blend-mode:multiply">
<g style="mix-blend-mode:multiply" opacity="0.2">
<path d="M90 29.6114C87.2931 28.0373 84.7311 26.5291 82.1559 25.0537C79.5807 23.5784 77.0055 22.1031 74.3842 20.5554L75.4907 19.8968L76.1493 19.5082V19.2382L76.1888 9.95823H76.1493V9.62892L45.3721 27.4116C40.8013 30.0461 37.0867 32.1537 35.4928 33.1087L35.3282 33.2074V38.9308L30.9418 36.4017V32.1273C30.8496 32.1734 30.7903 32.1932 30.7376 32.2261C27.2469 34.202 24.6783 35.7365 20.8583 37.9166C20.6237 38.0829 20.3634 38.2097 20.0878 38.292C19.3764 38.4105 18.6585 38.4698 17.9407 38.5554L16.6959 38.7003L15.9714 49.416C15.1547 49.416 12.6783 51.3589 11.7299 52.1559V55.1987C12.6915 55.416 15.2601 56.0483 15.2601 56.0483C15.2601 56.0483 17.0449 55.7914 17.7167 55.7256V55.7651L15.5894 56.9901L10.9659 55.9166C10.9659 56.2854 10.9066 56.2393 10.9066 56.6081L5.78916 53.6575C5.28861 53.9473 4.35336 54.3161 3.87916 54.5862C3.90055 54.6337 3.92475 54.6799 3.95161 54.7245C4.41265 55.3831 4.90001 56.0417 5.34129 56.7464C5.58528 57.1549 5.94841 57.479 6.38192 57.6751C6.49388 57.7278 6.59926 57.8002 6.71123 57.8661C9.24032 59.3282 12.4017 61.1592 13.956 62.0681C14.2631 62.2859 14.6034 62.4527 14.9637 62.562C16.1756 62.8189 18.428 63.3721 19.4028 63.5566C19.5977 63.6068 19.8006 63.6175 19.9997 63.5881C20.1988 63.5587 20.3899 63.4897 20.562 63.3853C21.1086 63.0231 21.6882 62.7267 22.2612 62.3908C22.3672 62.3344 22.4839 62.3007 22.6037 62.292C23.1042 62.2327 23.6048 62.18 24.1119 62.1339C24.383 62.113 24.6429 62.0172 24.8627 61.8573C25.1657 61.6466 25.4884 61.4621 25.8046 61.2711C25.907 61.2085 26.0214 61.1681 26.1405 61.1526L31.5675 60.5269C32.025 60.4493 32.4869 60.4009 32.9506 60.382C33.8331 60.382 34.7157 60.4347 35.585 60.4676C35.7036 60.4676 35.8221 60.4676 35.9539 60.4676L36.0592 60.2174L35.3348 60.0527L45.9319 53.9341C45.7793 53.5962 45.5674 53.2884 45.3062 53.0253L49.225 53.157L49.4621 53.0187C52.0966 53.1109 54.27 53.1899 54.9286 53.2031C55.1499 53.231 55.3746 53.2108 55.5873 53.1438C55.9232 52.9989 56.2459 52.7882 56.5554 52.6103C67.64 46.2678 66.112 47.1175 69.6356 45.0823C70.0373 44.8518 82.1164 37.8968 83.4666 37.1065C83.8167 36.9268 84.144 36.7057 84.4413 36.4478C85.5741 35.3545 86.674 34.2217 87.7871 33.1087C87.8464 33.0494 88.6235 31.5411 88.6235 31.5411L87.662 30.9681L90 29.6114ZM17.8221 52.3469L12.8364 52.1361V52.0571L14.3644 51.2799C14.6392 51.1493 14.9434 51.0925 15.2469 51.1153C15.598 51.1008 15.9478 51.0634 16.2941 51.0033L17.4401 50.865C17.8353 50.8189 18.237 50.7925 18.6322 50.7596C18.7047 50.7596 18.7705 50.7596 18.8825 50.7596L17.8221 52.3469ZM22.9857 41.3611L21.5038 41.0186C21.7267 40.9358 21.9652 40.9035 22.2021 40.924C22.4389 40.9445 22.6683 41.0173 22.8737 41.1372C23.012 41.2096 23.0252 41.2558 22.9857 41.3611Z" fill="#949494"/>
</g>
<g style="mix-blend-mode:multiply">
<path d="M63.049 11.7883C62.5616 9.54898 59.9732 1.34918 59.5846 0.848634L20.3837 23.4787L31.5802 29.953L63.049 11.7883Z" fill="#949494"/>
</g>
</g>
</svg>
