<svg width="16" height="16" viewBox="0 0 16 16" fill="none" xmlns="http://www.w3.org/2000/svg">
<path d="M5.81029 0.99892C6.97587 -0.332973 9.02413 -0.332973 10.1897 0.99892C10.7095 1.59282 11.4413 1.95094 12.2223 1.99356C13.9738 2.08913 15.2509 3.71636 14.9528 5.47277C14.8199 6.25597 15.0007 7.06066 15.4548 7.7077C16.4734 9.15877 16.0176 11.1879 14.4803 12.0462C13.7949 12.4289 13.2884 13.0743 13.0737 13.8385C12.5923 15.5524 10.7469 16.4554 9.128 15.7693C8.40614 15.4634 7.59386 15.4634 6.872 15.7693C5.25313 16.4554 3.40771 15.5524 2.92627 13.8385C2.71159 13.0743 2.20514 12.4289 1.51967 12.0462C-0.0175811 11.1879 -0.473363 9.15877 0.545154 7.7077C0.999319 7.06066 1.18007 6.25597 1.04716 5.47277C0.74911 3.71636 2.02618 2.08913 3.77769 1.99356C4.55871 1.95094 5.29054 1.59282 5.81029 0.99892Z" fill="#00D8BE"/>
<path d="M11 6.2998L7.21875 10.2998L5.5 8.48162" stroke="white" stroke-width="1.5" stroke-linecap="round" stroke-linejoin="round"/>
</svg>
