<svg width="28" height="15" viewBox="0 0 28 15" fill="none" xmlns="http://www.w3.org/2000/svg">
<path d="M3.80482 1.03696H21.0868C21.8518 1.07064 22.5722 1.40596 23.0905 1.96954C23.6088 2.53313 23.8828 3.27908 23.8524 4.04415V10.8166C23.8828 11.5816 23.6088 12.3276 23.0905 12.8912C22.5722 13.4547 21.8518 13.7901 21.0868 13.8237H3.80482C3.03988 13.7901 2.31943 13.4547 1.80113 12.8912C1.28283 12.3276 1.00888 11.5816 1.03924 10.8166V4.04415C1.00888 3.27908 1.28283 2.53313 1.80113 1.96954C2.31943 1.40596 3.03988 1.07064 3.80482 1.03696V1.03696Z" stroke="white" stroke-opacity="0.35" stroke-width="2"/>
<path d="M25.9261 3.80253V10.0243C27.1828 9.49736 28 8.27153 28 6.91342C28 5.55531 27.1828 4.32948 25.9261 3.80253Z" fill="white"/>
</svg>
