<svg width="40" height="40" viewBox="0 0 40 40" fill="none" xmlns="http://www.w3.org/2000/svg">
<path d="M20 40C31.0457 40 40 31.0457 40 20C40 8.9543 31.0457 0 20 0C8.9543 0 0 8.9543 0 20C0 31.0457 8.9543 40 20 40Z" fill="#7198FF"/>
<path opacity="0.05" d="M39.9749 20.99L31.4583 12.4734V12.4526L31.4416 12.4567L20 8.54004L8.55831 12.4567L8.54163 12.4526V27.4984L21.0162 39.973C31.2614 39.4602 39.4746 31.2383 39.9749 20.99Z" fill="#11004D"/>
<path d="M20 16.3854L8.54175 12.4492V27.4949L20.0001 31.4549L20 16.3854Z" fill="#FCD462"/>
<path d="M20 16.3854L31.4585 12.4492V27.4949L20.0001 31.4549L20 16.3854Z" fill="#E5B053"/>
<path d="M19.9998 8.54004L8.54163 12.4636L19.9998 16.3872L31.4583 12.4636L19.9998 8.54004Z" fill="#F6C358"/>
<path d="M24.3049 10.0137L12.8467 13.9372L15.6952 14.9124L27.1531 10.9889L24.3049 10.0137Z" fill="#CE7A41"/>
<path d="M15.6956 14.9135V18.5635L13.9706 17.8051L12.8456 17.3093V13.9385L13.9706 14.3218L15.6956 14.9135Z" fill="#DC8744"/>
</svg>
