<svg width="17" height="12" viewBox="0 0 17 12" fill="none" xmlns="http://www.w3.org/2000/svg">
<path d="M1.00037 7.08264H2.00032C2.27379 7.09127 2.53266 7.20803 2.72013 7.40731C2.9076 7.60659 3.00835 7.87211 3.00027 8.14559V10.2705C3.00808 10.5438 2.90721 10.8091 2.71977 11.0081C2.53233 11.2072 2.27361 11.3238 2.00032 11.3324H1.00037C0.727084 11.3238 0.468367 11.2072 0.280926 11.0081C0.0934839 10.8091 -0.00738983 10.5438 0.000422159 10.2705V8.14559C-0.00738983 7.87228 0.0934839 7.60702 0.280926 7.40795C0.468367 7.20889 0.727084 7.09227 1.00037 7.08364V7.08264ZM5.66716 4.95775H6.66711C6.94058 4.96637 7.19942 5.08314 7.38689 5.28242C7.57436 5.4817 7.67514 5.74721 7.66706 6.0207V10.2705C7.67487 10.5438 7.574 10.8091 7.38656 11.0081C7.19911 11.2072 6.9404 11.3238 6.66711 11.3324H5.66716C5.39387 11.3238 5.13513 11.2072 4.94768 11.0081C4.76024 10.8091 4.6594 10.5438 4.66721 10.2705V6.0207C4.65912 5.74738 4.75973 5.48201 4.94698 5.28276C5.13424 5.08351 5.39286 4.96663 5.66615 4.95775H5.66716ZM10.3329 2.47888H11.3329C11.6063 2.4875 11.8652 2.60426 12.0527 2.80354C12.2401 3.00282 12.3409 3.26834 12.3328 3.54182V10.2705C12.3406 10.5438 12.2397 10.8091 12.0523 11.0081C11.8649 11.2072 11.6061 11.3238 11.3329 11.3324H10.3329C10.0596 11.3238 9.80091 11.2072 9.61346 11.0081C9.42602 10.8091 9.32515 10.5438 9.33296 10.2705V3.54182C9.32488 3.26834 9.42563 3.00282 9.6131 2.80354C9.80057 2.60426 10.0594 2.4875 10.3329 2.47888ZM14.9997 0H15.9996C16.2731 0.00862104 16.532 0.125385 16.7194 0.324666C16.9069 0.523947 17.0076 0.789464 16.9996 1.06295V10.2705C17.0074 10.5438 16.9065 10.8091 16.7191 11.0081C16.5316 11.2072 16.2729 11.3238 15.9996 11.3324H14.9997C14.7264 11.3238 14.4677 11.2072 14.2802 11.0081C14.0928 10.8091 13.9919 10.5438 13.9997 10.2705V1.06295C13.9919 0.789634 14.0928 0.524376 14.2802 0.325312C14.4677 0.126249 14.7264 0.00962252 14.9997 0.0009994V0Z" fill="white"/>
</svg>
