<svg width="16" height="12" viewBox="0 0 16 12" fill="none" xmlns="http://www.w3.org/2000/svg">
<path d="M7.87476 2.4897C9.01835 2.49552 10.1494 2.72864 11.2021 3.17549C12.2547 3.62235 13.2081 4.27403 14.0067 5.09264C14.0355 5.1227 14.0701 5.14663 14.1084 5.16297C14.1468 5.17931 14.188 5.18774 14.2297 5.18774C14.2714 5.18774 14.3126 5.17931 14.3509 5.16297C14.3892 5.14663 14.4238 5.1227 14.4527 5.09264L15.6434 3.81537C15.7061 3.74718 15.7403 3.65766 15.7392 3.56507C15.7381 3.47185 15.7012 3.38261 15.6362 3.3158C14.6324 2.26762 13.4268 1.43348 12.092 0.863629C10.7572 0.293775 9.32096 0 7.86963 0C6.41831 0 4.982 0.293775 3.64723 0.863629C2.31247 1.43348 1.10686 2.26762 0.103037 3.3158C0.0380149 3.38261 0.00113412 3.47185 2.58411e-05 3.56507C-0.00107772 3.65766 0.0332016 3.74718 0.0958387 3.81537L1.28655 5.09264C1.31539 5.1227 1.35001 5.14663 1.38834 5.16297C1.42666 5.17931 1.46792 5.18774 1.50958 5.18774C1.55124 5.18774 1.59247 5.17931 1.63079 5.16297C1.66912 5.14663 1.70374 5.1227 1.73258 5.09264C2.53127 4.27391 3.48478 3.62216 4.53765 3.1753C5.59053 2.72843 6.72175 2.49538 7.86552 2.4897H7.87476ZM7.87476 6.64389C9.14313 6.64967 10.3597 7.14788 11.2678 8.03343C11.297 8.0631 11.332 8.08655 11.3705 8.10237C11.4091 8.11818 11.4504 8.12603 11.4921 8.12546C11.5337 8.12488 11.5749 8.11588 11.613 8.09901C11.6511 8.08213 11.6854 8.05772 11.7138 8.02725L12.9035 6.74999C12.9669 6.68138 13.0016 6.59105 13.0003 6.49763C12.9995 6.40405 12.9626 6.31439 12.8973 6.24732C12.2406 5.58272 11.4585 5.05507 10.5963 4.69494C9.73416 4.33481 8.8091 4.14938 7.87476 4.14938C6.94042 4.14938 6.01539 4.33481 5.15324 4.69494C4.29109 5.05507 3.50898 5.58272 2.85225 6.24732C2.78698 6.31439 2.75008 6.40405 2.74924 6.49763C2.74799 6.59105 2.78265 6.68138 2.84606 6.74999L4.03473 8.02725C4.06315 8.05772 4.09744 8.08213 4.13554 8.09901C4.17364 8.11588 4.21477 8.12488 4.25644 8.12546C4.2981 8.12603 4.33945 8.11818 4.378 8.10237C4.41655 8.08655 4.4515 8.0631 4.48076 8.03343C5.38826 7.14828 6.604 6.65009 7.87168 6.64389H7.87476ZM10.1605 9.69078C10.2248 9.62276 10.2596 9.53203 10.2573 9.43842C10.257 9.34534 10.22 9.25613 10.1543 9.19018C9.53319 8.62059 8.7211 8.30459 7.87837 8.30459C7.03565 8.30459 6.22356 8.62059 5.60247 9.19018C5.53668 9.25606 5.49964 9.34531 5.49946 9.43842C5.49712 9.53203 5.53196 9.62276 5.59631 9.69078L7.65641 11.8972C7.68521 11.9294 7.72042 11.9552 7.7598 11.9729C7.79919 11.9906 7.84187 11.9999 7.88507 12.0002C7.92827 11.9999 7.97095 11.9906 8.01034 11.9729C8.04972 11.9552 8.08496 11.9294 8.11376 11.8972L10.1605 9.69078Z" fill="white"/>
</svg>
