<svg width="40" height="40" viewBox="0 0 40 40" fill="none" xmlns="http://www.w3.org/2000/svg">
<path d="M20 40C31.0457 40 40 31.0457 40 20C40 8.9543 31.0457 0 20 0C8.9543 0 0 8.9543 0 20C0 31.0457 8.9543 40 20 40Z" fill="#00D8D5"/>
<path opacity="0.05" d="M29.5001 15.5L8 26L21.0163 39.9747C30.4105 39.5045 38.0963 32.5525 39.694 23.5C39.694 23.5 33.0479 17.36 29.5001 15.5Z" fill="#11004D"/>
<path d="M28.4563 15.5088H23.5007V24.4906H31.6201V20.4479L30.6731 17.1752C30.3877 16.1882 29.4837 15.5088 28.4563 15.5088Z" fill="#FF6D6E"/>
<path d="M30.4347 20.4064L29.5908 17.4892C29.4453 16.9877 28.9788 16.6367 28.4563 16.6367H24.6287V20.4064H30.4347Z" fill="#84DBFF"/>
<path d="M30.4356 20.4054H24.6266V16.6357L30.4356 20.4054Z" fill="#CDD6E0"/>
<path d="M30.4347 20.4064L29.5908 17.4892C29.4453 16.9877 28.9788 16.6367 28.4563 16.6367H24.6287L30.4347 20.4064Z" fill="#F2F2F2"/>
<path d="M9.49987 11H22.0008C22.8287 11 23.5007 11.6714 23.5007 12.4999V24.4904H8V12.4999C8 11.6715 8.67143 11 9.49987 11Z" fill="#F6C358"/>
<path d="M18.1591 11.0029V14.9661L17.5791 14.3861L16.9712 14.9941L16.3637 14.3861L15.7563 14.9941L15.1478 14.3861L14.5324 14.9941L13.9254 14.3861L13.3385 14.9731V11.0029H18.1591Z" fill="#F2F2F2"/>
<path d="M31.9999 24.4903V26.1852H8.00195V24.4903H10.5067C11.0917 23.4404 12.2166 22.7305 13.5065 22.7305C14.7914 22.7305 15.9163 23.4404 16.5062 24.4903H24.5656C25.1505 23.4404 26.2699 22.7305 27.5598 22.7305C28.8497 22.7305 29.9696 23.4404 30.5596 24.4903H31.9999Z" fill="#334A5E"/>
<path d="M29.9551 26.1746C29.9551 27.4975 28.8827 28.5699 27.5598 28.5699C26.237 28.5699 25.1655 27.4975 25.1655 26.1746C25.1655 24.8517 26.2374 23.7793 27.5598 23.7793C28.8832 23.7793 29.9551 24.8517 29.9551 26.1746Z" fill="#40596B"/>
<path d="M28.5228 26.1739C28.5228 26.7053 28.0918 27.1358 27.5608 27.1358C27.0293 27.1358 26.5979 26.7053 26.5979 26.1739C26.5979 25.6424 27.0289 25.2119 27.5608 25.2119C28.0918 25.2114 28.5228 25.6424 28.5228 26.1739Z" fill="#ACB3BA"/>
<path d="M15.8999 26.1746C15.8999 27.4975 14.8269 28.5699 13.5046 28.5699C12.1817 28.5699 11.1093 27.4975 11.1093 26.1746C11.1093 24.8517 12.1817 23.7793 13.5046 23.7793C14.8269 23.7793 15.8999 24.8517 15.8999 26.1746Z" fill="#40596B"/>
<path d="M14.4665 26.1738C14.4665 26.7053 14.036 27.1358 13.5045 27.1358C12.973 27.1358 12.5421 26.7053 12.5421 26.1738C12.5421 25.6424 12.9731 25.2119 13.5045 25.2119C14.0359 25.2119 14.4665 25.6424 14.4665 26.1738Z" fill="#ACB3BA"/>
</svg>
