<svg width="90" height="66" viewBox="0 0 90 66" fill="none" xmlns="http://www.w3.org/2000/svg">
<path d="M62.1017 35.3279L62.1899 35.2737L62.7734 34.9141C62.8082 35.0566 62.8512 35.1971 62.9023 35.3347C63.0338 35.6757 63.2569 35.9739 63.5468 36.1964C63.0923 35.9182 62.6038 35.6197 62.1017 35.3279Z" fill="#090000"/>
<path d="M60.8474 32.3247L59.6669 31.6462C60.0063 30.4645 60.553 29.3526 61.2816 28.3624C61.9896 27.266 62.9942 26.3931 64.1787 25.8452C64.7708 25.5838 65.4265 25.5012 66.0649 25.6077C66.2705 25.6421 66.4682 25.7134 66.6484 25.8181L67.7611 26.4558L69.3962 27.3989C69.261 27.3142 69.1149 27.248 68.962 27.2022C68.324 27.0464 67.6521 27.111 67.0555 27.3854C64.613 28.3691 62.0755 32.0601 62.2044 35.2625L62.1162 35.3168C62.1742 34.6686 62.0716 34.0162 61.8176 33.417C61.6052 32.9716 61.2712 32.5953 60.8542 32.3315L60.8474 32.3247Z" fill="#717F90"/>
<path d="M62.1895 35.2733C62.0606 32.0708 64.5981 28.3799 67.0406 27.3961C67.6373 27.1217 68.3092 27.0572 68.9472 27.2129C69.1001 27.2588 69.2461 27.325 69.3814 27.4097C69.8007 27.6758 70.1368 28.0543 70.3516 28.5021C70.6024 29.0997 70.7048 29.7492 70.6502 30.395L70.0666 30.7003C70.1203 30.1407 70.0341 29.5765 69.8156 29.0584C69.5729 28.5407 69.1369 28.1388 68.6011 27.9389C68.1303 27.8532 67.646 27.8772 67.186 28.009C66.7259 28.1408 66.3024 28.3768 65.9483 28.6988C64.2249 29.9811 62.678 32.5254 62.7866 34.9069L62.1895 35.2733Z" fill="#596876"/>
<path d="M65.9479 28.6992C66.244 28.5016 66.582 28.3755 66.9352 28.3307C67.2884 28.286 67.6472 28.3239 67.9833 28.4414L68.0986 28.5024C68.3645 28.6784 68.5852 28.9144 68.7431 29.1913C68.9011 29.4683 68.9917 29.7784 69.0078 30.0968C69.0078 30.2461 69.0078 30.3954 69.0078 30.5582C69.0078 33.9506 65.4458 37.343 63.58 36.2574C63.542 36.2448 63.5072 36.224 63.4782 36.1964C63.1882 35.9738 62.9652 35.6757 62.8336 35.3347C62.7826 35.1971 62.7396 35.0566 62.7047 34.914C62.5962 32.5326 64.1431 29.9883 65.8664 28.706L65.9479 28.6992ZM68.3497 30.9721C68.3928 30.638 68.3295 30.2988 68.1687 30.0028C68.0079 29.7068 67.7578 29.469 67.4541 29.3234C67.1202 29.1935 66.7498 29.1935 66.416 29.3234C65.8971 29.5094 65.4313 29.8192 65.0591 30.2257C64.1936 31.089 63.6399 32.2156 63.485 33.4282C63.4299 33.7401 63.4299 34.0593 63.485 34.3712C63.515 34.5409 63.5747 34.704 63.6614 34.853C63.7482 35.0086 63.8606 35.1485 63.9938 35.2668C65.3983 36.4542 68.2683 33.781 68.3497 30.9721Z" fill="#1A2738"/>
<path d="M58.7161 32.9343C56.5722 33.6127 54.0957 36.8559 54.2246 39.8412L53.6479 40.2143C53.5054 37.0119 56.0565 33.3074 58.4923 32.3372C59.0867 32.0561 59.7594 31.9867 60.3988 32.1404C60.5524 32.1928 60.7002 32.261 60.8398 32.344C61.2568 32.6078 61.5908 32.9842 61.8032 33.4296C62.0572 34.0287 62.1598 34.6811 62.1018 35.3293L61.5318 35.6278C61.5801 35.0693 61.4892 34.5075 61.2672 33.9927C61.1496 33.7365 60.9822 33.5063 60.7749 33.3153C60.5676 33.1243 60.3244 32.9763 60.0595 32.88C59.618 32.7496 59.1457 32.7687 58.7161 32.9343Z" fill="#596876"/>
<path d="M54.2224 39.8401C54.2706 40.1054 54.3697 40.3588 54.5142 40.5864C54.6675 40.8269 54.8741 41.0289 55.118 41.1767L52.8384 39.8876C52.6665 39.7844 52.5166 39.6484 52.3973 39.4873L53.6457 40.2133L54.2224 39.8401Z" fill="#090000"/>
<path d="M59.802 35.8987C59.8485 35.5677 59.7888 35.2304 59.6316 34.9354C59.4743 34.6404 59.2276 34.4028 58.9268 34.2568C58.5917 34.1338 58.2238 34.1338 57.8887 34.2568C57.3684 34.4433 56.9022 34.7557 56.5318 35.166C55.669 36.0266 55.1135 37.1472 54.9509 38.3548C54.8932 38.6688 54.8932 38.9907 54.9509 39.3047C54.9797 39.4716 55.0371 39.6323 55.1205 39.7796C55.2127 39.9374 55.3295 40.0795 55.4666 40.2003C56.871 41.3673 59.7003 38.7076 59.802 35.8987ZM59.5917 33.4427C59.8584 33.615 60.0792 33.8495 60.2352 34.1261C60.3912 34.4026 60.4777 34.7129 60.4873 35.0303C60.4978 35.1816 60.4978 35.3335 60.4873 35.4849C60.4873 38.6466 57.4613 41.7676 55.6023 41.3808C55.4419 41.341 55.287 41.2818 55.1409 41.2044H55.0934C54.8495 41.0566 54.6429 40.8546 54.4896 40.6142C54.3451 40.3865 54.246 40.1331 54.1978 39.8678C54.0689 36.8825 56.5454 33.6462 58.6893 32.9609C58.9336 33.1102 59.1914 33.2595 59.4424 33.3952L59.5917 33.4427Z" fill="#1A2738"/>
<path d="M54.9494 39.303C55.56 39.8729 56.5031 39.4794 57.1409 38.9095C57.3212 38.9164 57.5005 38.8807 57.6644 38.8052C57.8282 38.7298 57.972 38.6167 58.084 38.4753C58.494 38.056 58.7355 37.5006 58.7624 36.9148C58.7773 36.7115 58.7196 36.5096 58.5996 36.3448C58.644 36.1214 58.6668 35.8942 58.6675 35.6664C58.7096 35.3712 58.6533 35.0704 58.5074 34.8104C58.3615 34.5504 58.134 34.3458 57.8601 34.228C58.1952 34.105 58.563 34.105 58.8981 34.228C58.9425 34.2747 58.9833 34.3246 59.0203 34.3773C59.2962 34.7458 59.4332 35.1999 59.407 35.6596C59.3566 36.6312 59.0397 37.5701 58.491 38.3735C58.1183 39.0395 57.5658 39.5873 56.8966 39.9544C56.454 40.2045 55.9352 40.2842 55.4379 40.1783C55.3008 40.0574 55.184 39.9154 55.0919 39.7576C55.0084 39.6102 54.951 39.4495 54.9222 39.2827L54.9494 39.303Z" fill="#717F90"/>
<path d="M63.4705 33.428C63.6254 32.2155 64.1791 31.0889 65.0445 30.2256C65.4168 29.819 65.8826 29.5093 66.4015 29.3232C66.8764 29.4589 67.2292 29.9203 67.2292 30.7616C67.2294 30.9898 67.2043 31.2174 67.1546 31.4401C67.1149 31.3867 67.0639 31.3427 67.0053 31.3112H66.9646L66.2861 30.9041C66.1336 30.8506 65.9696 30.8388 65.811 30.8698C65.6524 30.9008 65.5049 30.9735 65.3838 31.0805C64.8845 31.4508 64.5488 32.0006 64.4475 32.6139C64.4142 32.7721 64.4244 32.9364 64.477 33.0893C64.5295 33.2422 64.6225 33.378 64.746 33.4823L65.4245 33.8758C65.4963 33.9306 65.5799 33.9678 65.6687 33.9844C65.0242 34.5543 64.0879 34.9546 63.4705 34.3779C63.4146 34.0637 63.4146 33.7422 63.4705 33.428Z" fill="#596876"/>
<path d="M57.1486 38.9093C56.5108 39.4793 55.5678 39.8728 54.9571 39.3029C54.8994 38.9889 54.8994 38.667 54.9571 38.353C55.1132 37.1543 55.6564 36.0394 56.5041 35.1777C56.8745 34.7674 57.3406 34.4551 57.861 34.2686C58.1349 34.3863 58.3624 34.591 58.5084 34.851C58.6543 35.111 58.7105 35.4118 58.6684 35.7069C58.6677 35.9347 58.645 36.162 58.6006 36.3854C58.5457 36.3246 58.4786 36.2761 58.4038 36.2429C58.1799 36.1072 57.9424 35.9783 57.7253 35.8494C57.5743 35.792 57.4105 35.7768 57.2515 35.8055C57.0925 35.8342 56.9444 35.9057 56.8229 36.0122C56.3263 36.4053 55.9987 36.9732 55.907 37.5999C55.874 37.7604 55.8856 37.9268 55.9406 38.0811C55.9957 38.2355 56.092 38.3717 56.2191 38.4751L56.8976 38.8551L56.9519 38.8958C57.0111 38.9271 57.0754 38.9478 57.1418 38.9568L57.1486 38.9093Z" fill="#596876"/>
<path d="M65.9491 28.6999C66.3032 28.3779 66.7267 28.1418 67.1868 28.01C67.6468 27.8783 68.1311 27.8543 68.6019 27.94C69.1402 28.143 69.5766 28.5502 69.8164 29.073C70.0349 29.5911 70.1211 30.1553 70.0675 30.715L69.0362 30.1111C69.0201 29.7927 68.9294 29.4825 68.7715 29.2056C68.6136 28.9287 68.3928 28.6927 68.127 28.5167L68.0117 28.4556C67.6728 28.3317 67.3095 28.2892 66.9512 28.3317C66.5929 28.3741 66.2496 28.5002 65.9491 28.6999Z" fill="#283C48"/>
<path d="M57.521 30.5188L61.2662 28.3477C60.5537 29.3434 60.023 30.4575 59.6989 31.6383L58.1316 30.7359C57.9529 30.6331 57.7578 30.562 57.5549 30.5256L57.521 30.5188Z" fill="#E06C00"/>
<path d="M65.4657 35.0376C65.0236 35.2961 64.5003 35.3785 64.0002 35.2683C63.8669 35.1499 63.7545 35.01 63.6677 34.8544C63.5811 34.7054 63.5214 34.5424 63.4913 34.3727C64.1087 34.9494 65.045 34.5491 65.6896 33.9792C65.8689 33.9861 66.0473 33.9503 66.2101 33.8748C66.3728 33.7993 66.5154 33.6863 66.6259 33.5449C67.0376 33.1268 67.2794 32.5707 67.3044 31.9844C67.3232 31.7839 67.2677 31.5835 67.1483 31.4213C67.1981 31.1986 67.2231 30.971 67.223 30.7428C67.223 29.9015 66.8702 29.4401 66.3952 29.3044C66.7291 29.1746 67.0995 29.1746 67.4333 29.3044C67.4857 29.3472 67.5315 29.3975 67.569 29.4537C67.846 29.8243 67.9829 30.2809 67.9557 30.7428C67.9091 31.714 67.5944 32.6534 67.0466 33.4567C66.6752 34.1191 66.1281 34.6662 65.4657 35.0376Z" fill="#717F90"/>
<path d="M65.201 33.0535C65.2661 32.5234 65.5047 32.0296 65.8795 31.6491C66.2866 31.2352 66.6869 31.1402 66.9718 31.2623H67.0126C67.0711 31.2939 67.1221 31.3379 67.1618 31.3913C67.2811 31.5535 67.3367 31.7539 67.3179 31.9544C67.2929 32.5407 67.0511 33.0968 66.6394 33.5149C66.5289 33.6562 66.3863 33.7693 66.2236 33.8448C66.0608 33.9203 65.8824 33.956 65.7031 33.9491C65.6143 33.9326 65.5306 33.8954 65.4588 33.8406C65.3522 33.7424 65.2725 33.6184 65.2273 33.4807C65.1822 33.3429 65.1731 33.1958 65.201 33.0535Z" fill="#A5B3BF"/>
<path d="M58.7158 32.9351C59.1495 32.7664 59.627 32.7473 60.0728 32.8808C60.3377 32.9772 60.5808 33.1251 60.7882 33.3161C60.9955 33.5071 61.1628 33.7374 61.2805 33.9935C61.5024 34.5083 61.5933 35.0701 61.5451 35.6286L60.5002 35.0316C60.4906 34.7142 60.4041 34.4039 60.2481 34.1274C60.0921 33.8508 59.8713 33.6163 59.6046 33.4439L59.4825 33.3693C59.2179 33.2336 58.9601 33.0843 58.7158 32.9351Z" fill="#283C48"/>
<path d="M56.6584 37.9881C56.7235 37.4579 56.9621 36.9642 57.3369 36.5836C57.7508 36.1698 58.1443 36.0748 58.4225 36.1969C58.4973 36.2301 58.5644 36.2786 58.6192 36.3394C58.7392 36.5041 58.7969 36.7061 58.7821 36.9093C58.7552 37.4951 58.5137 38.0506 58.1036 38.4698C57.9916 38.6113 57.8479 38.7243 57.684 38.7998C57.5201 38.8752 57.3408 38.911 57.1605 38.904C57.0941 38.895 57.0298 38.8744 56.9705 38.843L56.9163 38.8023C56.8051 38.7015 56.7227 38.573 56.6774 38.43C56.6321 38.287 56.6255 38.1345 56.6584 37.9881Z" fill="#A5B3BF"/>
<path d="M67.4533 29.3232C67.7571 29.4689 68.0071 29.7067 68.1679 30.0027C68.3287 30.2987 68.392 30.6379 68.3489 30.9719C68.2675 33.7808 65.3975 36.454 63.9999 35.2667C64.5 35.3769 65.0233 35.2945 65.4654 35.036C66.1353 34.6676 66.6897 34.1203 67.0666 33.4552C67.6144 32.6518 67.9291 31.7125 67.9758 30.7413C68.003 30.2794 67.866 29.8228 67.589 29.4521C67.55 29.4031 67.5043 29.3597 67.4533 29.3232Z" fill="#596876"/>
<path d="M58.9264 34.2559C59.2272 34.4018 59.4739 34.6394 59.6312 34.9344C59.7884 35.2294 59.8481 35.5667 59.8017 35.8978C59.727 38.7067 56.8706 41.3663 55.4662 40.1993C55.9635 40.3052 56.4823 40.2256 56.9249 39.9754C57.5941 39.6084 58.1466 39.0606 58.5193 38.3946C59.068 37.5912 59.3849 36.6522 59.4353 35.6807C59.4614 35.221 59.3245 34.7669 59.0485 34.3983C59.0113 34.348 58.9705 34.3004 58.9264 34.2559Z" fill="#596876"/>
<path d="M58.4308 36.1908C58.1527 36.0687 57.7524 36.1908 57.3453 36.5775C56.9704 36.958 56.7319 37.4518 56.6668 37.982C56.6323 38.1272 56.6367 38.2789 56.6796 38.4219C56.7224 38.5648 56.8023 38.6939 56.9111 38.7961L56.2326 38.4162C56.1055 38.3128 56.0092 38.1765 55.9541 38.0222C55.8991 37.8679 55.8875 37.7014 55.9205 37.541C56.0122 36.9143 56.3398 36.3464 56.8364 35.9533C56.9578 35.8467 57.106 35.7752 57.265 35.7465C57.424 35.7179 57.5878 35.733 57.7388 35.7905C57.9695 35.9262 58.2069 36.0551 58.4308 36.1908Z" fill="#717F90"/>
<path d="M66.2799 30.8556L66.9584 31.2627C66.6734 31.1406 66.2799 31.2627 65.866 31.6495C65.4912 32.03 65.2526 32.5238 65.1875 33.0539C65.1538 33.1997 65.1593 33.3518 65.2034 33.4948C65.2475 33.6378 65.3286 33.7666 65.4386 33.8681L64.7601 33.4746C64.6366 33.3702 64.5436 33.2344 64.491 33.0815C64.4385 32.9286 64.4283 32.7643 64.4615 32.6061C64.5443 31.9799 64.871 31.4117 65.3707 31.0253C65.4932 30.9182 65.6422 30.846 65.8021 30.8162C65.962 30.7864 66.127 30.8 66.2799 30.8556Z" fill="#717F90"/>
<path d="M60.847 32.324C60.7074 32.241 60.5597 32.1728 60.406 32.1204C59.7666 31.9667 59.0939 32.0361 58.4995 32.3172C56.0637 33.2874 53.5126 36.9919 53.6551 40.1943L52.4067 39.4683L50.8802 38.6135C50.8563 37.6868 51.0153 36.7646 51.3483 35.8996C51.6219 35.176 51.965 34.4807 52.3728 33.8234C52.4882 33.6402 52.5967 33.4638 52.7188 33.301C53.321 32.3383 54.1626 31.5481 55.1613 31.0077C55.8755 30.5962 56.7047 30.4294 57.5225 30.5328C57.7254 30.5692 57.9205 30.6404 58.0992 30.7431L59.7004 31.6387L60.847 32.324Z" fill="#717F90"/>
<path d="M72.7601 25.4036L70.2293 26.8556L36.6311 46.2533L34.3853 46.6875L34.365 46.5993L71.9255 24.9287L72.7601 25.4036Z" fill="#F6BA28"/>
<path d="M34.3656 46.5984L34.3859 46.6866L31.9163 47.1615L17.9803 39.1148L18.8284 37.6289L34.3656 46.5984Z" fill="#F6BA28"/>
<path d="M72.7603 25.4023V27.2546L70.2296 28.7065L36.6313 48.111V46.252L70.2296 26.8543L72.7603 25.4023Z" fill="#E06C00"/>
<path d="M36.6311 46.252V48.111L31.9496 48.993V47.1883L31.9156 47.1611L34.3853 46.6862L36.6311 46.252Z" fill="#E06C00"/>
<path d="M59.1842 16.6029L35.3289 30.3692L30.7907 33.1612L27.8435 30.7685L33.531 27.3635L55.6765 14.5742L59.1842 16.6029Z" fill="#AB7713"/>
<path d="M55.6742 1.11133V14.5723L33.5286 27.3616L28.1129 30.6184L18.0519 22.7639L21.8656 20.6311L55.6742 1.11133Z" fill="#D39C30"/>
<path d="M70.8395 9.90666L59.1833 16.6439L55.6755 14.6153V1.1543L70.8395 9.90666Z" fill="#CA9328"/>
<path d="M72.7603 9.86507L35.3286 31.4678L34.3522 32.0272L33.4571 31.5088L18.4173 22.5674L19.2371 22.1077L34.3929 30.9388L35.3286 30.3687L59.1839 16.6024L70.8402 9.86507L55.6762 1.1127L21.8676 20.6325L18.4173 22.5674L17.4893 22.0301L20.911 20.0762L55.6762 0L72.7603 9.86507Z" fill="#F9D67A"/>
<path d="M34.3657 46.5975V32.0257L17.4769 22.0137L17.2952 36.746L18.8285 37.628L34.3657 46.5975Z" fill="#8C6000"/>
<path d="M72.7598 24.4389V9.86523L35.3282 31.4612L34.3647 32.0213V46.598L71.9253 24.9274L72.7598 24.4389Z" fill="#D28F00"/>
<path d="M71.8844 11.3574V23.9432L71.5181 23.7329V11.5745L71.8844 11.3574Z" fill="#6D4B00"/>
<path d="M71.8862 23.9437L69.7965 25.1446V24.724L71.5198 23.7334L71.8862 23.9437Z" fill="#6D4B00"/>
<path d="M71.5198 11.5742V23.7325L69.7965 24.7231V12.5648L71.5198 11.5742Z" fill="#F6BA28"/>
<path d="M69.7955 24.7238V25.1444V25.1512L69.0627 25.5719V12.9929L69.7955 12.5654V24.7238Z" fill="#D28F00"/>
<path d="M69.0626 12.9941V25.5731L68.6895 25.3628V13.2113V13.2045L69.0626 12.9941Z" fill="#6D4B00"/>
<path d="M69.0615 25.5726L66.3273 27.1467V26.726L68.6884 25.3623L69.0615 25.5726Z" fill="#6D4B00"/>
<path d="M68.6884 13.2099V25.3615L66.3273 26.7252V14.5737L68.6884 13.2031V13.2099Z" fill="#F6BA28"/>
<path d="M66.3279 26.7258V27.1464L65.5884 27.5739V14.9949L66.3279 14.5742V26.7258Z" fill="#D28F00"/>
<path d="M65.5904 14.9961V27.5751L65.224 27.3647V15.2064L65.5904 14.9961Z" fill="#6D4B00"/>
<path d="M65.5878 27.5746L62.8604 29.1487V28.728L65.2215 27.3643L65.5878 27.5746Z" fill="#6D4B00"/>
<path d="M65.2215 15.2051V27.3634L62.8604 28.7271V16.5756L65.2215 15.2051Z" fill="#F6BA28"/>
<path d="M62.8608 29.1484L62.4944 29.3723L62.1281 29.569V16.9968L62.8608 16.5762V28.7277V29.1484Z" fill="#D28F00"/>
<path d="M62.1281 16.9961V29.5683V29.5819L61.7617 29.3715V17.2064L62.1281 16.9961Z" fill="#6D4B00"/>
<path d="M62.1286 29.5814L59.3943 31.1487V30.728L61.7622 29.3711L62.1286 29.5814Z" fill="#6D4B00"/>
<path d="M61.7622 17.207V29.3721L59.3943 30.7291V18.5776L61.7622 17.207Z" fill="#F6BA28"/>
<path d="M59.3933 31.1493L58.6605 31.5836V18.9978L59.3933 18.5771V30.7287V31.1493Z" fill="#D28F00"/>
<path d="M58.6615 18.9961V31.5819L58.2952 31.358V19.2064L58.6615 18.9961Z" fill="#6D4B00"/>
<path d="M58.6605 31.5842L55.933 33.1515V32.7309L58.2941 31.3604L58.6605 31.5842Z" fill="#6D4B00"/>
<path d="M58.2947 19.209V31.3605L55.9337 32.7311V20.5795L55.1941 21.0002L58.2947 19.209Z" fill="#F6BA28"/>
<path d="M55.9337 32.7297V33.1503L55.1941 33.571V20.9988L55.9337 20.5781V32.7297Z" fill="#D28F00"/>
<path d="M55.1943 33.5726L52.4601 35.1535V34.7328L54.828 33.3623L55.1943 33.5726Z" fill="#6D4B00"/>
<path d="M55.1944 20.9971V33.5693L54.828 33.3589V21.2074L55.1944 20.9971Z" fill="#6D4B00"/>
<path d="M54.8284 21.209V33.3605L52.4605 34.7311V22.5795L51.7278 23.0002L54.8284 21.209Z" fill="#F6BA28"/>
<path d="M52.4605 34.7297V35.1503L51.7278 35.571V22.9988L52.4605 22.5781V34.7297Z" fill="#D28F00"/>
<path d="M51.7258 35.5707L48.9916 37.1584V36.7309L51.3662 35.3672L51.7258 35.5707Z" fill="#6D4B00"/>
<path d="M51.7265 23V35.5722L51.3669 35.3687V23.2103L51.7265 23Z" fill="#6D4B00"/>
<path d="M51.3662 23.2119V35.3702L48.9916 36.734V24.5757L51.3662 23.2119Z" fill="#F7C939"/>
<path d="M48.992 36.7335V37.161L48.266 37.5816V25.0026L48.8359 24.6702L48.992 24.5752V36.7335Z" fill="#D28F00"/>
<path d="M48.8358 24.6689L48.2659 25.0014V37.5804L47.8927 37.3701V25.2117L48.8358 24.6689Z" fill="#6D4B00"/>
<path d="M48.2681 37.5804L45.5338 39.1613V38.7406L47.8949 37.3701L48.2681 37.5804Z" fill="#6D4B00"/>
<path d="M47.8949 25.2129V37.3712L45.5338 38.7417V26.5766L47.8949 25.2129Z" fill="#F6BA28"/>
<path d="M45.5321 38.7413V39.1619L44.7993 39.5826V27.0036L45.5321 26.5762V38.7413Z" fill="#D28F00"/>
<path d="M44.7992 27.002V39.5809L44.426 39.3706V27.2123L44.7992 27.002Z" fill="#6D4B00"/>
<path d="M44.8013 39.5824L42.067 41.1633V40.729L44.4281 39.3721L44.8013 39.5824Z" fill="#6D4B00"/>
<path d="M44.4281 27.2139V39.3722L42.067 40.7291V28.5776L44.4281 27.2139Z" fill="#F6BA28"/>
<path d="M42.065 40.7277V41.1619L41.3254 41.5826V28.9968L42.065 28.5762V40.7277Z" fill="#D28F00"/>
<path d="M41.3263 28.9961V41.5819L40.96 41.3715V29.22L41.3263 28.9961Z" fill="#6D4B00"/>
<path d="M41.3248 41.5844L38.5973 43.1652V42.731L40.9584 41.374L41.3248 41.5844Z" fill="#6D4B00"/>
<path d="M40.9584 29.2227V41.3742L38.5973 42.7312V30.5796L40.9584 29.2227Z" fill="#F6BA28"/>
<path d="M38.5996 42.7287V43.1629L37.8668 43.5836V30.9978L38.5996 30.5771V42.7287Z" fill="#D28F00"/>
<path d="M37.8646 30.998V43.5838L37.4982 43.3735V31.2219V31.2084L37.8646 30.998Z" fill="#6D4B00"/>
<path d="M37.866 43.5844L35.2335 45.1041V44.6835L37.4996 43.374L37.866 43.5844Z" fill="#6D4B00"/>
<path d="M37.4996 31.2245V43.376L35.2335 44.6855V32.5204L37.4996 31.2109V31.2245Z" fill="#F6BA28"/>
<path d="M13.8563 56.4691C14.3434 56.4691 14.7383 56.1592 14.7383 55.777C14.7383 55.3948 14.3434 55.085 13.8563 55.085C13.3691 55.085 12.9742 55.3948 12.9742 55.777C12.9742 56.1592 13.3691 56.4691 13.8563 56.4691Z" fill="white"/>
<path d="M24.0992 43.1442L24.1874 47.1676L23.9296 47.249L23.9906 43.3749C23.9616 43.1186 23.8464 42.8797 23.664 42.6973C23.4816 42.515 23.2428 42.3998 22.9865 42.3708L20.951 42.0587V41.8076L22.7965 42.0926L23.1086 42.1401C23.3625 42.172 23.5982 42.2884 23.7779 42.4705C23.9575 42.6527 24.0707 42.89 24.0992 43.1442Z" fill="#596876"/>
<path d="M31.9501 47.1407V48.9658L31.923 48.9794L31.9501 48.9929L30.1929 50.0107V46.2247L31.9501 45.207V47.1136L31.923 47.1271L31.9501 47.1407Z" fill="#F5AB0C"/>
<path d="M31.9501 43.627V45.2078L30.1929 46.2255V44.6447L31.9501 43.627Z" fill="#F5AB0C"/>
<path d="M31.9501 43.5177V43.6263L30.1929 44.644V34.0665L31.9501 33.0488V43.5177Z" fill="#F5AB0C"/>
<path d="M30.4848 30.7549L31.9503 33.0481L30.193 34.0659L28.7207 31.7726L30.4848 30.7549Z" fill="#F6BA28"/>
<path d="M30.1932 46.2227V50.0086L26.5566 52.0983C26.2512 51.9219 25.9527 51.7455 25.6542 51.5826C25.1922 51.3809 24.6859 51.3018 24.1843 51.3529C23.6828 51.404 23.2029 51.5836 22.791 51.8744V50.5174L30.1932 46.2227Z" fill="#F5AB0C"/>
<path d="M30.1919 44.6426V46.2234L22.783 50.5046V48.9238L30.1919 44.6426Z" fill="#CF8D00"/>
<path d="M30.1919 34.0674V44.6788L22.783 48.9532V47.6234H22.9865C23.1658 47.671 23.3559 47.6575 23.5267 47.585C23.6975 47.5125 23.8393 47.3851 23.9296 47.2231C23.9635 47.1417 24.0042 47.0738 24.0381 46.9992C24.0759 46.9088 24.0966 46.8122 24.0992 46.7142V43.1183C24.0687 42.8632 23.9529 42.6259 23.7707 42.4449C23.5884 42.2638 23.3503 42.1497 23.0951 42.1209L22.783 42.0734V38.3418L30.1919 34.0674Z" fill="#21061D"/>
<path d="M28.721 31.7725L30.1934 34.0657L22.7844 38.3401L21.3188 36.0469L28.721 31.7725Z" fill="#F6BA28"/>
<path d="M24.9471 52.6015C25.1792 52.5402 25.4207 52.5218 25.6595 52.5472C26.1509 52.6114 26.602 52.8526 26.9282 53.2257C27.2213 53.6205 27.3934 54.0919 27.4235 54.5826L26.5279 54.067C26.4837 53.9265 26.4221 53.792 26.3447 53.6667C26.1338 53.3222 25.8065 53.0646 25.422 52.9407C25.0602 52.8612 24.6853 52.8626 24.3241 52.9447C23.9628 53.0268 23.6242 53.1876 23.3323 53.4156C23.809 53.0364 24.3587 52.7593 24.9471 52.6015Z" fill="#283C48"/>
<path d="M26.528 54.0538C26.6387 54.3956 26.6937 54.753 26.6908 55.1123C26.6348 56.1454 26.3516 57.1536 25.8614 58.0648C25.3712 58.976 24.6861 59.7679 23.8548 60.384C23.5575 60.6268 23.212 60.8037 22.8413 60.9031C22.4705 61.0025 22.0829 61.0222 21.704 60.9607C21.5606 60.9155 21.4237 60.8516 21.2969 60.7708C20.9501 60.5279 20.6795 60.1914 20.5167 59.8005C20.377 59.4282 20.3191 59.0302 20.347 58.6336C20.5916 56.8514 21.4195 55.2005 22.7014 53.9385C22.8999 53.7354 23.1131 53.5472 23.3391 53.3754C23.6311 53.1473 23.9697 52.9865 24.3309 52.9044C24.6922 52.8223 25.067 52.8209 25.4288 52.9004C25.8133 53.0243 26.1407 53.2819 26.3516 53.6264C26.4287 53.7606 26.488 53.9043 26.528 54.0538ZM25.9716 55.5261C26.0159 55.1936 25.9545 54.8555 25.7963 54.5597C25.638 54.2638 25.3908 54.0252 25.0896 53.8774C24.7534 53.7478 24.381 53.7478 24.0448 53.8774C23.525 54.0617 23.0588 54.3717 22.6878 54.7798C21.8261 55.6485 21.2731 56.7758 21.1137 57.989C21.0662 58.3016 21.0662 58.6195 21.1137 58.9321C21.1449 59.0993 21.2046 59.26 21.2901 59.407C21.3752 59.5658 21.4877 59.7083 21.6226 59.8277C23.061 61.0082 25.897 58.3486 25.9716 55.5329V55.5261Z" fill="#1A2738"/>
<path d="M26.5569 52.1006C26.3644 52.0165 26.1612 51.9594 25.9531 51.931C24.7793 51.7749 23.4088 52.6909 22.5607 53.5322C21.6004 54.4954 20.8557 55.6518 20.376 56.9246V56.2461L19.5211 55.7508C20.3236 54.2071 21.4481 52.8536 22.8185 51.7817C23.2304 51.4909 23.7103 51.3113 24.2118 51.2602C24.7134 51.2091 25.2196 51.2882 25.6817 51.49C25.9802 51.6528 26.2788 51.8292 26.5841 52.0056L26.5569 52.1006Z" fill="#717F90"/>
<path d="M25.0982 53.877C25.3994 54.0247 25.6466 54.2634 25.8049 54.5592C25.9632 54.855 26.0245 55.1931 25.9803 55.5257C25.9056 58.3481 23.0357 61.0078 21.6312 59.8272C22.1195 59.9374 22.6315 59.8573 23.0628 59.6033C23.7326 59.2409 24.2874 58.6979 24.664 58.036C25.2135 57.2335 25.5283 56.2937 25.5732 55.3221C25.6038 54.864 25.4717 54.4099 25.2 54.0398L25.0643 53.8905L25.0982 53.877Z" fill="#596876"/>
<path d="M25.2257 54.0335C25.4973 54.4036 25.6295 54.8577 25.5988 55.3158C25.554 56.2874 25.2391 57.2272 24.6897 58.0297C24.3067 58.6979 23.7421 59.2437 23.0613 59.6038C22.6235 59.8672 22.1004 59.9499 21.6026 59.8345C21.4677 59.715 21.3552 59.5726 21.2701 59.4138C21.1846 59.2668 21.1249 59.1061 21.0938 58.9389C21.7044 59.5088 22.6407 59.1085 23.2852 58.5386C23.4644 58.5444 23.6424 58.5082 23.805 58.4327C23.9676 58.3573 24.1103 58.2449 24.2215 58.1043C24.6284 57.683 24.8694 57.1288 24.9 56.5438C24.9124 56.3419 24.8523 56.1422 24.7304 55.9807C24.7801 55.758 24.8051 55.5304 24.805 55.3022C24.8457 55.0047 24.7865 54.702 24.6367 54.4417C24.4869 54.1815 24.255 53.9782 23.9773 53.8638C24.3135 53.7342 24.6859 53.7342 25.0221 53.8638L25.2257 54.0335Z" fill="#717F90"/>
<path d="M24.791 55.9751C24.9129 56.1366 24.973 56.3363 24.9606 56.5382C24.93 57.1232 24.689 57.6774 24.2821 58.0987C24.1708 58.2392 24.0282 58.3517 23.8656 58.4271C23.703 58.5025 23.525 58.5388 23.3458 58.5329C23.2811 58.5262 23.2185 58.5053 23.1626 58.4719C23.0294 58.3768 22.9282 58.2435 22.8725 58.0896C22.8167 57.9357 22.8091 57.7686 22.8505 57.6102C22.9146 57.0817 23.1534 56.5898 23.529 56.2126C23.9361 55.7987 24.3432 55.7037 24.6146 55.8258C24.6831 55.8628 24.7431 55.9137 24.791 55.9751Z" fill="#A5B3BF"/>
<path d="M24.6012 55.8174L23.9227 55.4239C23.7727 55.367 23.6101 55.3521 23.4523 55.3808C23.2945 55.4095 23.1475 55.4807 23.0271 55.5867C22.5267 55.9765 22.1981 56.5461 22.1112 57.1744C22.0796 57.3342 22.0913 57.4996 22.1449 57.6535C22.1986 57.8073 22.2923 57.944 22.4165 58.0496L23.156 58.4703C23.2119 58.5037 23.2744 58.5245 23.3392 58.5313C22.6947 59.1012 21.7584 59.5015 21.1477 58.9316C21.1002 58.6191 21.1002 58.3011 21.1477 57.9885C21.3071 56.7754 21.8601 55.648 22.7218 54.7793C23.0928 54.3713 23.559 54.0613 24.0788 53.877C24.3564 53.9913 24.5884 54.1946 24.7381 54.4549C24.8879 54.7151 24.9471 55.0178 24.9065 55.3153C24.9066 55.5435 24.8816 55.7711 24.8319 55.9938C24.7801 55.9309 24.7153 55.88 24.6419 55.8445L24.6012 55.8174Z" fill="#596876"/>
<path d="M24.602 55.8179C24.3306 55.6958 23.9236 55.8179 23.5165 56.2047C23.1409 56.5819 22.9021 57.0738 22.838 57.6023C22.7966 57.7607 22.8042 57.9278 22.8599 58.0817C22.9157 58.2356 23.0169 58.3689 23.1501 58.464L22.4106 58.0433C22.2864 57.9378 22.1927 57.801 22.139 57.6472C22.0853 57.4933 22.0737 57.328 22.1052 57.1681C22.1922 56.5398 22.5208 55.9702 23.0212 55.5805C23.1416 55.4744 23.2885 55.4033 23.4464 55.3746C23.6042 55.3459 23.7668 55.3608 23.9168 55.4176L24.602 55.8179Z" fill="#717F90"/>
<path d="M22.7827 47.6221L20.9373 47.3439V42.0586L22.9727 42.3707C23.229 42.3998 23.4679 42.5149 23.6503 42.6973C23.8326 42.8797 23.9478 43.1185 23.9768 43.3748V46.9776C23.9801 47.0718 23.9591 47.1652 23.9158 47.2489C23.8255 47.411 23.6837 47.5384 23.5129 47.6109C23.3421 47.6833 23.152 47.6969 22.9727 47.6492L22.7827 47.6221Z" fill="#717F90"/>
<path d="M22.7827 50.5049V51.8618C21.4122 52.9337 20.2877 54.2872 19.4853 55.8309L19.241 55.6885L16.3643 57.3439L18.3658 53.9108L22.7827 50.5049Z" fill="#F5AB0C"/>
<path d="M22.7831 48.9248V50.5057L18.3662 53.9048L20.9376 49.99L22.7831 48.9248Z" fill="#F5AB0C"/>
<path d="M22.7827 47.6209V48.9236L20.9373 49.9888V47.3428L22.7827 47.6209Z" fill="#F5AB0C"/>
<path d="M22.7827 38.3398V42.0918L20.9373 41.8136V39.4118L22.7827 38.3398Z" fill="#F5AB0C"/>
<path d="M21.3167 36.0469L22.7822 38.3401L20.9367 39.4121L19.4576 37.1189L21.3167 36.0469Z" fill="#F6BA28"/>
<path d="M21.2961 60.7992L21.4996 60.9077C20.7465 60.4735 19.7695 59.9443 19.0096 59.5508C18.7886 59.4058 18.5994 59.2173 18.4536 58.9969C18.3078 58.7764 18.2084 58.5286 18.1615 58.2685L18.4058 58.126L19.8713 58.9266C20.0341 58.8384 20.1901 58.7502 20.3394 58.6552C20.3115 59.0519 20.3693 59.4499 20.509 59.8222C20.6726 60.2164 20.9457 60.5554 21.2961 60.7992Z" fill="#090000"/>
<path d="M20.9389 47.3435V49.9896L16.5288 50.8377L17.2616 39.8328L20.9389 39.4121V41.8139V42.0582V47.3435Z" fill="#E7A400"/>
<path d="M17.6739 40.2281L20.4964 39.9092V49.625L17.0022 50.3035L17.6739 40.2281Z" fill="#21061D"/>
<path d="M19.4581 37.1183L20.9372 39.4115L17.2599 39.8322L18.3726 36.4873L19.4581 37.1183Z" fill="#FFCD54"/>
<path d="M20.9382 49.9902L18.3668 53.905L12.1316 53.6947L16.5281 50.8383L20.9382 49.9902Z" fill="#FFCD54"/>
<path d="M20.3408 56.3213V56.9658L18.4072 58.0921L18.1629 58.2346L16.1682 59.3812V58.7367L20.3408 56.3213Z" fill="#717F90"/>
<path d="M20.3408 56.3187L16.1681 58.734L11.2492 57.601L1.96758 52.241L0 49.3982L2.29326 48.0684L1.94044 49.7646L3.30419 51.7321L4.7697 52.587L10.6317 55.9658L12.1312 56.8343L15.795 57.6688L16.3649 57.3432V57.3364L19.2416 55.6809L19.4859 55.8234L20.3408 56.3187Z" fill="#C8D1DD"/>
<path d="M18.4066 58.0911L20.3403 56.9648C20.1579 57.4405 20.0261 57.934 19.9468 58.4371C19.9128 58.6 19.8925 58.7696 19.8721 58.9324L18.4066 58.0911Z" fill="#717F90"/>
<path d="M27.3556 52.7575C27.1346 52.4819 26.8508 52.2632 26.5279 52.1197C26.3354 52.0357 26.1322 51.9786 25.924 51.9501C24.7503 51.7941 23.3797 52.71 22.5316 53.5513C21.5713 54.5146 20.8266 55.6709 20.3469 56.9437C20.1646 57.4194 20.0327 57.9128 19.9534 58.416C19.9195 58.5789 19.8991 58.7485 19.8788 58.9113C20.0416 58.8231 20.1977 58.7349 20.3469 58.6399C20.5915 56.8578 21.4194 55.2068 22.7013 53.9449C22.8998 53.7418 23.1129 53.5536 23.339 53.3817C23.817 53.0074 24.3665 52.7349 24.9538 52.5811C25.186 52.5198 25.4274 52.5014 25.6662 52.5268C26.1576 52.591 26.6087 52.8322 26.935 53.2053C27.228 53.6001 27.4001 54.0715 27.4302 54.5623L27.9052 54.2909C27.861 53.7401 27.6713 53.211 27.3556 52.7575Z" fill="#596876"/>
<path d="M18.3718 36.4886L17.2591 39.8335L14.6674 38.3408L16.8724 35.6201L18.3718 36.4886Z" fill="#FFD97B"/>
<path d="M18.3668 53.9056L16.3653 57.3387L15.7886 57.6644L12.1316 56.8298V53.6885L18.3668 53.9056ZM14.6419 57.0266C15.7886 56.8705 16.4128 55.6154 15.4697 54.9504C14.3841 54.2041 12.2537 54.808 12.7558 56.0292C12.9258 56.3723 13.1994 56.6532 13.538 56.8322C13.8765 57.0112 14.2627 57.0792 14.6419 57.0266Z" fill="#F6BA28"/>
<path d="M17.2606 39.8329L16.5278 50.8378L13.936 49.3452L8.07397 45.9528L5.51611 44.4805L5.62465 42.9607L6.13351 35.2736L6.25565 33.4756L8.81351 34.9547L14.6688 38.3403L17.2606 39.8329Z" fill="#EABD49"/>
<path d="M5.97754 44.2359L6.05895 42.9943L6.64243 34.208L14.4449 38.7199L16.7993 40.0768L16.1411 50.1047L5.97754 44.2359Z" fill="#543E51"/>
<path d="M16.8743 35.621L14.6692 38.3417L8.81396 34.9561L11.0122 32.2422L16.8743 35.621Z" fill="#FFD97B"/>
<path d="M16.168 58.7366V59.3811L11.249 58.2481V57.6035L16.168 58.7366Z" fill="#A5B3BF"/>
<path d="M15.4703 54.9502C16.4134 55.6287 15.7892 56.8703 14.6426 57.0264C14.2643 57.0775 13.8796 57.0088 13.5425 56.8299C13.2054 56.651 12.9328 56.3709 12.7632 56.029C12.2543 54.8078 14.3847 54.1768 15.4703 54.9502Z" fill="url(#paint0_radial_37_18071)"/>
<path d="M11.2478 57.6022V58.2467L1.96619 52.8935V52.2422L11.2478 57.6022Z" fill="#A5B3BF"/>
<path d="M11.0106 32.2407L8.81237 34.9546L6.25452 33.4755L9.54512 31.3926L11.0106 32.2407Z" fill="#FFD97B"/>
<path d="M19.4606 24.3994L8.44885 30.7568L19.4606 37.1209L30.4858 30.7568L19.4606 24.3994Z" fill="#F9D67A"/>
<path d="M17.9949 24.9965L16.2309 26.0142L11.5494 28.7213L6.97644 31.3538L8.44873 30.7568L9.54786 30.1258L11.7733 28.8434L17.7099 25.4171L19.4604 24.3994L17.9949 24.9965Z" fill="#F6BA28"/>
<path d="M6.55982 32.5664L6.9737 31.3519L8.44599 30.7549L9.54512 31.3926L6.25452 33.4756L6.44449 32.9057L6.55982 32.5664Z" fill="#FFCD54"/>
<path d="M5.51763 44.4824L3.30579 48.6008C5.29373 49.7542 9.52064 52.1967 12.126 53.6962L16.5225 50.8398L5.51763 44.4824Z" fill="#F9D67A"/>
<path d="M6.4459 32.907L6.25593 33.4769L6.13379 35.2817V33.063C6.13379 32.8052 6.17451 32.6356 6.24914 32.6152C6.3102 32.6152 6.37806 32.7034 6.4459 32.907Z" fill="#7E8D9E"/>
<path d="M5.62341 42.9619L5.51487 44.4817L3.30303 48.6001L2.93665 44.9973L5.62341 42.9619Z" fill="#FFCD54"/>
<path d="M10.6333 52.8314L4.7713 49.4458L3.30579 48.5977V51.7322L4.7713 52.5871L10.6333 55.9659L12.1328 56.8344V53.693L10.6333 52.8314Z" fill="#52575D"/>
<path d="M3.7467 49.7665V49.2305L10.4094 53.0774L11.6917 53.8102V54.3598L3.7467 49.7665Z" fill="#3A3E42"/>
<path d="M3.7467 50.6893V50.1533L10.4094 54.0003L11.6917 54.7398V55.2826L3.7467 50.6893Z" fill="#3A3E42"/>
<path d="M3.7467 51.6122V51.0762L10.4094 54.9299L11.6917 55.6627V56.2055L3.7467 51.6122Z" fill="#3A3E42"/>
<path d="M3.30263 48.5988V51.7334L1.94568 49.7658L2.29848 48.0696L2.94304 44.9961L3.30263 48.5988ZM3.20087 50.1729C3.2193 49.3666 3.14646 48.5609 2.98375 47.7711C2.76664 47.3368 2.25777 49.0466 2.61737 50.2C2.67164 50.3561 2.79376 50.6478 2.94981 50.7157C3.10586 50.7835 3.1873 50.3968 3.20087 50.1729Z" fill="#F6BA28"/>
<path d="M2.98491 47.7712C3.14762 48.5611 3.22046 49.3668 3.20203 50.173C3.20203 50.3969 3.15451 50.804 2.95097 50.7158C2.74743 50.6276 2.6728 50.3562 2.61852 50.2002C2.25893 49.0468 2.76779 47.337 2.98491 47.7712Z" fill="url(#paint1_radial_37_18071)"/>
<path d="M1.96758 52.2432V52.8946L0 50.0517V49.4004L1.96758 52.2432Z" fill="#A5B3BF"/>
<path d="M27.0522 30.9863V31.1627L19.65 35.4439V35.2675L27.0522 30.9863Z" fill="#D67B18"/>
<path d="M24.4604 29.4951V29.6715L17.0582 33.9527V33.7763L24.4604 29.4951Z" fill="#D67B18"/>
<path d="M21.8694 27.9932V28.1764L14.4672 32.4508V32.2676L21.8694 27.9932Z" fill="#D67B18"/>
<path d="M19.2768 26.502V26.6851L11.8746 30.9528V30.7764L19.2768 26.502Z" fill="#D67B18"/>
<path d="M11.8753 30.7761V30.9525L11.1493 30.5319V30.3555L11.8753 30.7761Z" fill="#EA9F4D"/>
<path d="M14.4638 32.2693V32.4525L13.7242 32.0318V31.8486L14.4638 32.2693Z" fill="#EA9F4D"/>
<path d="M17.0553 33.776V33.9524L16.3158 33.525V33.3418L17.0553 33.776Z" fill="#EA9F4D"/>
<path d="M19.6479 35.2663V35.4427L18.9083 35.0153V34.8389L19.6479 35.2663Z" fill="#EA9F4D"/>
<path d="M27.0501 30.9871L19.6479 35.2683L18.9083 34.8408L26.3105 30.5664L27.0501 30.9871Z" fill="#EA8D28"/>
<path d="M24.4575 29.4939L17.0553 33.7751L16.3158 33.3409L23.718 29.0732L24.4575 29.4939Z" fill="#EA8D28"/>
<path d="M21.866 27.9939L14.4638 32.2683L13.7242 31.8476L21.14 27.5732L21.866 27.9939Z" fill="#EA8D28"/>
<path d="M19.2775 26.5017L11.8753 30.7761L11.1493 30.3555L18.5515 26.0811L19.2775 26.5017Z" fill="#EA8D28"/>
<g style="mix-blend-mode:multiply" opacity="0.2">
<path d="M90 33.9307L72.7617 24.4321C72.7617 24.4321 72.8006 10.9547 72.7667 9.8623L36.0407 31.058L34.3699 32.0029L33.3025 31.4203L31.57 30.3566C31.57 30.3566 17.5266 21.7827 17.4655 22.0812V23.4191L18.4071 24.1334L23.1157 27.994L30.3347 32.0648L30.1922 34.1003L21.5348 39.0599C21.5009 39.0599 20.7749 39.4399 20.7342 39.4467C20.0083 39.5688 19.2619 39.6299 18.5224 39.7181L17.2401 39.8673L16.5005 50.9062L12.1311 53.7286V56.8632C13.1217 57.0871 15.761 57.7384 15.761 57.7384C15.761 57.7384 17.5997 57.4738 18.2917 57.406V57.4467L16.107 58.7087L11.2763 57.5688C11.2763 57.9488 11.222 57.9013 11.222 58.2473L5.94341 55.2077C5.42777 55.5062 4.47112 55.8862 3.97583 56.1644C3.99787 56.2133 4.0228 56.2609 4.05047 56.3069C4.53219 56.9853 5.02748 57.6638 5.48884 58.3898C5.73738 58.8104 6.10927 59.1444 6.55406 59.3464C6.67305 59.4054 6.78857 59.4711 6.90007 59.5432C9.49864 61.0494 12.7553 62.9356 14.3633 63.8719L15.0418 64.2315L20.0015 65.4053C20.4058 65.4491 20.8147 65.3884 21.1888 65.2288C21.7519 64.8557 22.3558 64.5504 22.9461 64.2043C23.0532 64.1471 23.171 64.1125 23.2921 64.1026C23.8077 64.0415 24.3302 63.9872 24.8458 63.9397C25.125 63.9182 25.3928 63.8195 25.6193 63.6548C25.9382 63.4377 26.2978 63.2477 26.5895 63.0509C26.696 62.9884 26.8134 62.947 26.9355 62.9288L32.5262 62.2503C32.9993 62.1668 33.4776 62.117 33.9578 62.1011C34.8669 62.1011 35.7761 62.1553 36.6717 62.1893C36.787 62.1893 36.9091 62.1893 37.0448 62.1893L37.1602 61.9314L36.3664 61.7618L46.3739 55.988C46.5558 56.0405 46.7329 56.1086 46.9031 56.1915C47.7784 56.6529 48.1919 56.9291 49.0264 57.4176L53.3215 55.0313L90 33.9307ZM18.3121 53.8915L13.176 53.6744V53.5929L14.7501 52.7923C15.0336 52.659 15.3466 52.6006 15.6592 52.6227C16.0209 52.6078 16.3813 52.5693 16.738 52.5074C17.1315 52.4599 17.525 52.4056 17.9186 52.3649C18.3121 52.3242 18.7395 52.2903 19.1534 52.2563C19.2212 52.2563 19.2959 52.2563 19.4044 52.2563L18.3121 53.8915ZM23.5296 42.337C23.6585 42.4184 23.6652 42.4659 23.6245 42.5745L22.1183 42.2149C22.3508 42.1264 22.6002 42.0914 22.8481 42.1125C23.0959 42.1337 23.3358 42.2104 23.5499 42.337H23.5296Z" fill="#949494"/>
</g>
<defs>
<radialGradient id="paint0_radial_37_18071" cx="0" cy="0" r="1" gradientUnits="userSpaceOnUse" gradientTransform="translate(14.5951 56.1783) scale(1.99472 1.99472)">
<stop stop-color="#F6F6F6"/>
<stop offset="0.46" stop-color="#FAF9E7"/>
<stop offset="0.79" stop-color="#FEFBDA"/>
</radialGradient>
<radialGradient id="paint1_radial_37_18071" cx="0" cy="0" r="1" gradientUnits="userSpaceOnUse" gradientTransform="translate(256.573 343.31) scale(1.15229 4.90208)">
<stop stop-color="#F6F6F6"/>
<stop offset="0.46" stop-color="#FAF9E7"/>
<stop offset="0.79" stop-color="#FEFBDA"/>
</radialGradient>
</defs>
</svg>
