<svg width="21" height="18" viewBox="0 0 21 18" fill="none" xmlns="http://www.w3.org/2000/svg">
<path d="M18.5051 2.49953C18.0426 2.0353 17.4934 1.66703 16.8889 1.41578C16.2845 1.16453 15.6366 1.03521 14.9824 1.03521C14.3281 1.03521 13.6802 1.16453 13.0758 1.41578C12.4714 1.66703 11.9222 2.0353 11.4596 2.49953L10.4997 3.46252L9.53981 2.49953C8.60553 1.56225 7.33837 1.03569 6.01709 1.03569C4.69581 1.03569 3.42865 1.56225 2.49437 2.49953C1.56008 3.4368 1.03521 4.70802 1.03521 6.03353C1.03521 7.35904 1.56008 8.63026 2.49437 9.56754L3.45429 10.5305L9.03339 16.1275C9.84247 16.9392 11.157 16.9392 11.9661 16.1275L17.5452 10.5305L18.5051 9.56754C18.9678 9.10353 19.3349 8.55259 19.5854 7.94622C19.8358 7.33984 19.9647 6.6899 19.9647 6.03353C19.9647 5.37716 19.8358 4.72723 19.5854 4.12085C19.3349 3.51447 18.9678 2.96354 18.5051 2.49953Z" stroke="white" stroke-width="2" stroke-linecap="round" stroke-linejoin="round"/>
</svg>
