<svg width="50" height="46" viewBox="0 0 50 46" fill="none" xmlns="http://www.w3.org/2000/svg">
<rect x="38.6459" y="30.5195" width="5" height="5" fill="#00D8D5"/>
<path opacity="0.8" d="M33.6788 0H48.4645C48.6823 0 48.8913 0.0865432 49.0453 0.240591C49.1993 0.394639 49.2859 0.603572 49.2859 0.821428V45.1786C49.2859 45.3964 49.1993 45.6053 49.0453 45.7594C48.8913 45.9134 48.6823 46 48.4645 46H33.6788C33.4609 46 33.252 45.9134 33.0979 45.7594C32.9439 45.6053 32.8573 45.3964 32.8573 45.1786V0.821428C32.8573 0.603572 32.9439 0.394639 33.0979 0.240591C33.252 0.0865432 33.4609 0 33.6788 0ZM42.7145 1.64286H39.4288V4.92857H42.7145V1.64286ZM44.3573 1.64286V5.75C44.3573 5.96785 44.2708 6.17679 44.1167 6.33083C43.9627 6.48488 43.7537 6.57143 43.5359 6.57143H38.6073C38.3895 6.57143 38.1805 6.48488 38.0265 6.33083C37.8724 6.17679 37.7859 5.96785 37.7859 5.75V1.64286H34.5002V14.7857H47.643V1.64286H44.3573ZM42.7145 31.2143H39.4288V34.5H42.7145V31.2143ZM47.643 29.5714V16.4286H44.3573V20.5357C44.3573 20.7536 44.2708 20.9625 44.1167 21.1165C43.9627 21.2706 43.7537 21.3571 43.5359 21.3571H38.6073C38.3895 21.3571 38.1805 21.2706 38.0265 21.1165C37.8724 20.9625 37.7859 20.7536 37.7859 20.5357V16.4286H34.5002V29.5714H47.643ZM42.7145 16.4286H39.4288V19.7143H42.7145V16.4286ZM47.643 44.3571V31.2143H44.3573V35.3214C44.3573 35.5393 44.2708 35.7482 44.1167 35.9023C43.9627 36.0563 43.7537 36.1428 43.5359 36.1428H38.6073C38.3895 36.1428 38.1805 36.0563 38.0265 35.9023C37.8724 35.7482 37.7859 35.5393 37.7859 35.3214V31.2143H34.5002V44.3571H47.643Z" fill="#11004D"/>
<path opacity="0.4" d="M37.7839 41.0713H36.1411V42.7141H37.7839V41.0713Z" fill="#11004D"/>
<path opacity="0.4" d="M37.7839 26.2852H36.1411V27.928H37.7839V26.2852Z" fill="#11004D"/>
<path opacity="0.4" d="M37.7839 11.5H36.1411V13.1429H37.7839V11.5Z" fill="#11004D"/>
<path opacity="0.8" d="M3.28568 27.106H4.17837L4.8505 19.7132H3.28568C3.06782 19.7132 2.85889 19.6266 2.70484 19.4726C2.55079 19.3185 2.46425 19.1096 2.46425 18.8917V15.606C2.46425 15.4039 2.5388 15.2088 2.67363 15.0582C2.80846 14.9076 2.99409 14.8119 3.19501 14.7896L17.25 13.228V7.39174C17.25 7.17388 17.3365 6.96495 17.4905 6.8109C17.6446 6.65686 17.8535 6.57031 18.0714 6.57031H31.2142V8.21317H18.8928V27.9274H31.2142V29.5703H26.2857V39.4274H31.2142V41.0703H18.8332C18.6359 42.4388 17.952 43.6903 16.9069 44.5956C15.8618 45.5008 14.5255 45.9991 13.1428 45.9991C11.7602 45.9991 10.4239 45.5008 9.37875 44.5956C8.33364 43.6903 7.64977 42.4388 7.45247 41.0703H0.821396C0.603539 41.0703 0.394606 40.9837 0.240557 40.8297C0.0865097 40.6756 -3.24249e-05 40.4667 -3.24249e-05 40.2489V30.3917C0.000946045 29.5206 0.347433 28.6854 0.963411 28.0695C1.57939 27.4535 2.41455 27.107 3.28568 27.106ZM1.64282 30.3917V31.2132H3.28568V28.7489C2.85012 28.7494 2.43256 28.9226 2.12457 29.2306C1.81659 29.5386 1.64334 29.9562 1.64282 30.3917ZM5.828 27.106H12.3214V19.7132H6.50013L5.828 27.106ZM24.6428 29.5703H18.0714C17.8535 29.5703 17.6446 29.4838 17.4905 29.3297C17.3365 29.1757 17.25 28.9667 17.25 28.7489V14.8809L4.10711 16.3412V18.0703H13.1428C13.3607 18.0703 13.5696 18.1568 13.7237 18.3109C13.8777 18.4649 13.9642 18.6739 13.9642 18.8917V31.2508C16.067 31.4457 18.0354 32.3698 19.5286 33.8631C21.0219 35.3563 21.9459 37.3247 22.1408 39.4274H24.6428V29.5703ZM13.1428 34.4989C14.5249 34.5007 15.8602 34.9996 16.905 35.9044C17.9497 36.8093 18.6341 38.0597 18.8332 39.4274H20.489C20.2871 37.6203 19.4262 35.951 18.071 34.7387C16.7157 33.5264 14.9612 32.8562 13.1428 32.8562C11.3245 32.8562 9.56993 33.5264 8.21467 34.7387C6.85942 35.951 5.99855 37.6203 5.79668 39.4274H7.45247C7.65156 38.0597 8.33596 36.8093 9.38067 35.9044C10.4254 34.9996 11.7607 34.5007 13.1428 34.4989ZM13.1428 44.356C13.9551 44.356 14.7492 44.1151 15.4246 43.6638C16.1 43.2125 16.6265 42.5711 16.9373 41.8206C17.2482 41.0701 17.3295 40.2443 17.171 39.4476C17.0126 38.6509 16.6214 37.9191 16.047 37.3447C15.4726 36.7703 14.7408 36.3791 13.9441 36.2206C13.1474 36.0622 12.3216 36.1435 11.5711 36.4544C10.8206 36.7652 10.1792 37.2916 9.72785 37.9671C9.27655 38.6425 9.03568 39.4365 9.03568 40.2489C9.0369 41.3378 9.47001 42.3817 10.24 43.1517C11.01 43.9217 12.0539 44.3548 13.1428 44.356ZM4.14479 39.4274C4.3397 37.3247 5.26377 35.3563 6.75701 33.8631C8.25025 32.3698 10.2186 31.4457 12.3214 31.2508V28.7489H4.92854V32.0346C4.92854 32.2524 4.84199 32.4614 4.68795 32.6154C4.5339 32.7695 4.32496 32.856 4.10711 32.856H1.64282V34.4989H3.28568V36.1417H1.64282V39.4274H4.14479Z" fill="#11004D"/>
<path d="M22.9996 9.85645H21.3568V26.285H22.9996V9.85645Z" fill="#00D8D5"/>
<path opacity="0.8" d="M26.2853 9.85645H24.6424V26.285H26.2853V9.85645Z" fill="#11004D"/>
<path opacity="0.8" d="M29.5709 9.85645H27.9281V26.285H29.5709V9.85645Z" fill="#11004D"/>
<path d="M13.1417 37.7852C13.6291 37.7852 14.1055 37.9297 14.5108 38.2005C14.916 38.4712 15.2319 38.8561 15.4184 39.3064C15.6049 39.7567 15.6537 40.2522 15.5586 40.7302C15.4635 41.2082 15.2288 41.6473 14.8842 41.992C14.5395 42.3366 14.1005 42.5713 13.6224 42.6664C13.1444 42.7615 12.6489 42.7127 12.1986 42.5261C11.7483 42.3396 11.3635 42.0238 11.0927 41.6185C10.8219 41.2133 10.6774 40.7368 10.6774 40.2494C10.6781 39.5961 10.938 38.9697 11.4 38.5077C11.8619 38.0458 12.4883 37.7859 13.1417 37.7852ZM13.1417 41.0709C13.3041 41.0709 13.4629 41.0227 13.598 40.9324C13.7331 40.8422 13.8384 40.7139 13.9006 40.5638C13.9627 40.4137 13.979 40.2485 13.9473 40.0892C13.9156 39.9298 13.8374 39.7835 13.7225 39.6686C13.6076 39.5537 13.4613 39.4755 13.3019 39.4438C13.1426 39.4121 12.9774 39.4284 12.8273 39.4905C12.6772 39.5527 12.5489 39.658 12.4587 39.7931C12.3684 39.9282 12.3202 40.087 12.3202 40.2494C12.3205 40.4672 12.4071 40.676 12.5611 40.83C12.7151 40.984 12.9239 41.0706 13.1417 41.0709Z" fill="#00D8D5"/>
</svg>
